{
.appVersion = "895";
copyright = "Copyright 2016 Google Inc. All Rights Reserved.";
customParameters = (
{
name = description;
value = "Data unhinted. Designed by Monotype design team.";
},
{
name = license;
value = "This Font Software is licensed under the SIL Open Font License, Version 1.1. This Font Software is distributed on an \"AS IS\" BASIS, WITHOUT WARRANTIES OR CONDITIONS OF ANY KIND, either express or implied. See the SIL Open Font License for the specific language, permissions and limitations governing your use of this Font Software.";
},
{
name = licenseURL;
value = "http://scripts.sil.org/OFL";
},
{
name = vendorID;
value = GOOG;
},
{
name = panose;
value = (
2,
11,
5,
2,
4,
5,
4,
2,
2,
4
);
},
{
name = unicodeRanges;
value = (
57
);
},
{
name = codePageRanges;
value = (
1252,
1256
);
},
{
name = glyphOrder;
value = (
.notdef,
null,
uni000D,
space,
uni200C,
uni200D,
uni10B00,
uni10B01,
uni10B02,
uni10B03,
uni10B04,
uni10B05,
uni10B06,
uni10B07,
uni10B08,
uni10B09,
uni10B0A,
uni10B0B,
uni10B0C,
uni10B0D,
uni10B0E,
uni10B0F,
uni10B10,
uni10B11,
uni10B12,
uni10B13,
uni10B14,
uni10B15,
uni10B16,
uni10B17,
uni10B18,
uni10B19,
uni10B1A,
uni10B1B,
uni10B1C,
uni10B1D,
uni10B1E,
uni10B1F,
uni10B20,
uni10B21,
uni10B22,
uni10B23,
uni10B24,
uni10B25,
uni10B26,
uni10B27,
uni10B28,
uni10B29,
uni10B2A,
uni10B2B,
uni10B2C,
uni10B2D,
uni10B2E,
uni10B2F,
uni10B30,
uni10B31,
uni10B32,
uni10B33,
uni10B34,
uni10B35,
uni10B39,
uni10B3A,
uni10B3B,
uni10B3C,
uni10B3D,
uni10B3E,
uni10B3F,
uni10B3110B00,
uni10B3110B17,
uni10B3110B19,
uni10B0010B35,
uni2E30,
uni2E31
);
}
);
date = "2016-11-10 14:13:51 +0000";
designer = "Monotype Design Team";
designerURL = "http://www.monotype.com/studio";
familyName = "Noto Sans Avestan";
features = (
{
code = "sub uni10B00 uni10B35 by uni10B0010B35;\012sub uni10B31 uni10B00 by uni10B3110B00;\012sub uni10B31 uni10B17 by uni10B3110B17;\012sub uni10B31 uni10B19 by uni10B3110B19;\012";
name = liga;
}
);
fontMaster = (
{
ascender = 2189;

glyphs = (
{
glyphname = .notdef;
lastChange = "2016-11-10 14:13:37 +0000";
layers = (
{
layerId = "CE62A97F-1FFA-40F4-90CE-7C43E9FFEEC9";
paths = (
{
closed = 1;
nodes = (
"1034 0 LINE",
"1034 1462 LINE",
"193 1462 LINE",
"193 0 LINE"
);
},
{
closed = 1;
nodes = (
"297 1358 LINE",
"930 1358 LINE",
"930 104 LINE",
"297 104 LINE"
);
}
);
width = 1229;
}
);
note = .notdef;
},
{
glyphname = uni10B00;
lastChange = "2016-11-10 14:13:37 +0000";
layers = (
{
layerId = "CE62A97F-1FFA-40F4-90CE-7C43E9FFEEC9";
paths = (
{
closed = 1;
nodes = (
"529 172 OFFCURVE",
"630 226 OFFCURVE",
"711 385 CURVE",
"794 224 OFFCURVE",
"892 172 OFFCURVE",
"1059 172 CURVE SMOOTH",
"1371 172 OFFCURVE",
"1499 293 OFFCURVE",
"1499 588 CURVE SMOOTH",
"1499 661 OFFCURVE",
"1485 758 OFFCURVE",
"1458 877 CURVE",
"1315 877 LINE",
"1315 590 LINE SMOOTH",
"1315 399 OFFCURVE",
"1243 322 OFFCURVE",
"1051 322 CURVE SMOOTH",
"871 322 OFFCURVE",
"803 403 OFFCURVE",
"803 608 CURVE SMOOTH",
"803 666 OFFCURVE",
"789 756 OFFCURVE",
"762 877 CURVE",
"618 877 LINE",
"618 598 LINE SMOOTH",
"618 398 OFFCURVE",
"539 322 OFFCURVE",
"348 322 CURVE SMOOTH",
"41 322 LINE",
"41 193 LINE",
"136 179 OFFCURVE",
"242 172 OFFCURVE",
"358 172 CURVE SMOOTH"
);
}
);
width = 1632;
}
);
note = uni10B00;
},
{
glyphname = uni10B01;
lastChange = "2016-11-10 14:13:37 +0000";
layers = (
{
layerId = "CE62A97F-1FFA-40F4-90CE-7C43E9FFEEC9";
paths = (
{
closed = 1;
nodes = (
"527 172 OFFCURVE",
"628 226 OFFCURVE",
"709 385 CURVE",
"785 230 OFFCURVE",
"883 172 OFFCURVE",
"1051 172 CURVE SMOOTH",
"1226 172 OFFCURVE",
"1326 230 OFFCURVE",
"1405 385 CURVE",
"1485 228 OFFCURVE",
"1585 172 OFFCURVE",
"1753 172 CURVE SMOOTH",
"2065 172 OFFCURVE",
"2193 293 OFFCURVE",
"2193 588 CURVE SMOOTH",
"2193 661 OFFCURVE",
"2179 758 OFFCURVE",
"2152 877 CURVE",
"2009 877 LINE",
"2009 590 LINE SMOOTH",
"2009 399 OFFCURVE",
"1937 322 OFFCURVE",
"1745 322 CURVE SMOOTH",
"1562 322 OFFCURVE",
"1497 399 OFFCURVE",
"1497 604 CURVE SMOOTH",
"1497 677 OFFCURVE",
"1483 768 OFFCURVE",
"1456 877 CURVE",
"1313 877 LINE",
"1313 590 LINE SMOOTH",
"1313 399 OFFCURVE",
"1241 322 OFFCURVE",
"1049 322 CURVE SMOOTH",
"869 322 OFFCURVE",
"801 402 OFFCURVE",
"801 610 CURVE SMOOTH",
"801 667 OFFCURVE",
"787 756 OFFCURVE",
"760 877 CURVE",
"616 877 LINE",
"616 600 LINE SMOOTH",
"616 400 OFFCURVE",
"538 322 OFFCURVE",
"346 322 CURVE SMOOTH",
"41 322 LINE",
"41 193 LINE",
"136 179 OFFCURVE",
"241 172 OFFCURVE",
"356 172 CURVE SMOOTH"
);
}
);
width = 2327;
}
);
note = uni10B01;
},
{
glyphname = uni10B02;
lastChange = "2016-11-10 14:13:37 +0000";
layers = (
{
layerId = "CE62A97F-1FFA-40F4-90CE-7C43E9FFEEC9";
paths = (
{
closed = 1;
nodes = (
"520 -346 LINE",
"356 -307 OFFCURVE",
"301 -241 OFFCURVE",
"301 -106 CURVE SMOOTH",
"301 52 OFFCURVE",
"381 131 OFFCURVE",
"541 131 CURVE",
"541 178 LINE",
"597 174 OFFCURVE",
"658 172 OFFCURVE",
"725 172 CURVE SMOOTH",
"898 172 OFFCURVE",
"997 228 OFFCURVE",
"1077 385 CURVE",
"1157 228 OFFCURVE",
"1257 172 OFFCURVE",
"1425 172 CURVE SMOOTH",
"1738 172 OFFCURVE",
"1866 293 OFFCURVE",
"1866 588 CURVE SMOOTH",
"1866 615 OFFCURVE",
"1864 648 OFFCURVE",
"1859 686 CURVE SMOOTH",
"1854 723 OFFCURVE",
"1843 787 OFFCURVE",
"1825 877 CURVE",
"1681 877 LINE",
"1681 590 LINE SMOOTH",
"1681 399 OFFCURVE",
"1609 322 OFFCURVE",
"1417 322 CURVE SMOOTH",
"1237 322 OFFCURVE",
"1169 403 OFFCURVE",
"1169 608 CURVE SMOOTH",
"1169 681 OFFCURVE",
"1155 771 OFFCURVE",
"1128 877 CURVE",
"985 877 LINE",
"985 598 LINE SMOOTH",
"985 399 OFFCURVE",
"904 322 OFFCURVE",
"715 322 CURVE SMOOTH",
"408 322 LINE",
"408 311 LINE",
"332 340 OFFCURVE",
"301 399 OFFCURVE",
"301 516 CURVE SMOOTH",
"301 663 OFFCURVE",
"381 737 OFFCURVE",
"541 737 CURVE",
"541 897 LINE",
"273 897 OFFCURVE",
"113 755 OFFCURVE",
"113 518 CURVE SMOOTH",
"113 366 OFFCURVE",
"173 262 OFFCURVE",
"328 205 CURVE",
"179 133 OFFCURVE",
"113 32 OFFCURVE",
"113 -109 CURVE SMOOTH",
"113 -328 OFFCURVE",
"225 -443 OFFCURVE",
"461 -492 CURVE"
);
}
);
width = 1999;
}
);
note = uni10B02;
},
{
glyphname = uni10B03;
lastChange = "2016-11-10 14:13:37 +0000";
layers = (
{
layerId = "CE62A97F-1FFA-40F4-90CE-7C43E9FFEEC9";
paths = (
{
closed = 1;
nodes = (
"520 -346 LINE",
"356 -307 OFFCURVE",
"301 -241 OFFCURVE",
"301 -106 CURVE SMOOTH",
"301 52 OFFCURVE",
"381 131 OFFCURVE",
"541 131 CURVE",
"541 178 LINE",
"597 174 OFFCURVE",
"658 172 OFFCURVE",
"725 172 CURVE SMOOTH",
"898 172 OFFCURVE",
"997 228 OFFCURVE",
"1077 385 CURVE",
"1154 229 OFFCURVE",
"1254 172 OFFCURVE",
"1419 172 CURVE SMOOTH",
"1592 172 OFFCURVE",
"1694 229 OFFCURVE",
"1774 385 CURVE",
"1857 224 OFFCURVE",
"1955 172 OFFCURVE",
"2122 172 CURVE SMOOTH",
"2434 172 OFFCURVE",
"2562 293 OFFCURVE",
"2562 588 CURVE SMOOTH",
"2562 661 OFFCURVE",
"2548 758 OFFCURVE",
"2521 877 CURVE",
"2378 877 LINE",
"2378 590 LINE SMOOTH",
"2378 399 OFFCURVE",
"2306 322 OFFCURVE",
"2114 322 CURVE SMOOTH",
"1931 322 OFFCURVE",
"1866 399 OFFCURVE",
"1866 604 CURVE SMOOTH",
"1866 661 OFFCURVE",
"1852 752 OFFCURVE",
"1825 877 CURVE",
"1681 877 LINE",
"1681 590 LINE SMOOTH",
"1681 399 OFFCURVE",
"1609 322 OFFCURVE",
"1417 322 CURVE SMOOTH",
"1237 322 OFFCURVE",
"1169 402 OFFCURVE",
"1169 610 CURVE SMOOTH",
"1169 682 OFFCURVE",
"1155 771 OFFCURVE",
"1128 877 CURVE",
"985 877 LINE",
"985 600 LINE SMOOTH",
"985 399 OFFCURVE",
"904 322 OFFCURVE",
"715 322 CURVE SMOOTH",
"410 322 LINE",
"410 311 LINE",
"334 338 OFFCURVE",
"301 397 OFFCURVE",
"301 516 CURVE SMOOTH",
"301 663 OFFCURVE",
"381 737 OFFCURVE",
"541 737 CURVE",
"541 897 LINE",
"273 897 OFFCURVE",
"113 755 OFFCURVE",
"113 518 CURVE SMOOTH",
"113 366 OFFCURVE",
"173 262 OFFCURVE",
"328 205 CURVE",
"179 133 OFFCURVE",
"113 32 OFFCURVE",
"113 -109 CURVE SMOOTH",
"113 -328 OFFCURVE",
"225 -443 OFFCURVE",
"461 -492 CURVE"
);
}
);
width = 2695;
}
);
note = uni10B03;
},
{
glyphname = uni10B04;
lastChange = "2016-11-10 14:13:37 +0000";
layers = (
{
layerId = "CE62A97F-1FFA-40F4-90CE-7C43E9FFEEC9";
paths = (
{
closed = 1;
nodes = (
"274 -221 LINE",
"350 -65 OFFCURVE",
"399 110 OFFCURVE",
"422 303 CURVE",
"437 83 OFFCURVE",
"519 -96 OFFCURVE",
"635 -221 CURVE",
"815 -221 LINE",
"659 -36 OFFCURVE",
"594 139 OFFCURVE",
"594 352 CURVE SMOOTH",
"594 493 OFFCURVE",
"610 596 OFFCURVE",
"641 661 CURVE SMOOTH",
"672 726 OFFCURVE",
"721 758 OFFCURVE",
"786 758 CURVE SMOOTH",
"857 758 OFFCURVE",
"903 702 OFFCURVE",
"903 606 CURVE SMOOTH",
"903 451 OFFCURVE",
"1009 365 OFFCURVE",
"1196 365 CURVE SMOOTH",
"1411 365 OFFCURVE",
"1516 470 OFFCURVE",
"1516 659 CURVE SMOOTH",
"1516 710 OFFCURVE",
"1502 783 OFFCURVE",
"1475 877 CURVE",
"1333 877 LINE",
"1333 692 LINE SMOOTH",
"1333 572 OFFCURVE",
"1292 514 OFFCURVE",
"1196 514 CURVE SMOOTH",
"1119 514 OFFCURVE",
"1077 556 OFFCURVE",
"1077 639 CURVE SMOOTH",
"1077 806 OFFCURVE",
"974 897 OFFCURVE",
"786 897 CURVE SMOOTH",
"577 897 OFFCURVE",
"456 767 OFFCURVE",
"422 506 CURVE",
"411 670 OFFCURVE",
"351 817 OFFCURVE",
"279 877 CURVE",
"104 877 LINE",
"196 794 OFFCURVE",
"250 634 OFFCURVE",
"250 473 CURVE SMOOTH",
"250 244 OFFCURVE",
"197 -12 OFFCURVE",
"102 -221 CURVE"
);
}
);
width = 1597;
}
);
note = uni10B04;
},
{
glyphname = uni10B05;
lastChange = "2016-11-10 14:13:37 +0000";
layers = (
{
layerId = "CE62A97F-1FFA-40F4-90CE-7C43E9FFEEC9";
paths = (
{
closed = 1;
nodes = (
"879 -492 LINE",
"730 -313 OFFCURVE",
"666 -181 OFFCURVE",
"629 0 CURVE",
"1270 0 LINE",
"1270 160 LINE",
"606 160 LINE",
"600 204 OFFCURVE",
"595 289 OFFCURVE",
"592 414 CURVE",
"644 348 OFFCURVE",
"725 315 OFFCURVE",
"836 315 CURVE SMOOTH",
"935 315 OFFCURVE",
"1012 325 OFFCURVE",
"1068 346 CURVE SMOOTH",
"1180 387 OFFCURVE",
"1227 470 OFFCURVE",
"1227 639 CURVE SMOOTH",
"1227 698 OFFCURVE",
"1213 778 OFFCURVE",
"1186 879 CURVE",
"1042 879 LINE",
"1042 694 LINE SMOOTH",
"1042 629 OFFCURVE",
"1036 583 OFFCURVE",
"1023 555 CURVE SMOOTH",
"998 498 OFFCURVE",
"945 475 OFFCURVE",
"829 475 CURVE SMOOTH",
"767 475 OFFCURVE",
"720 488 OFFCURVE",
"687 514 CURVE SMOOTH",
"622 565 OFFCURVE",
"592 673 OFFCURVE",
"592 866 CURVE SMOOTH",
"592 879 LINE",
"410 879 LINE",
"410 561 LINE SMOOTH",
"410 408 OFFCURVE",
"416 274 OFFCURVE",
"428 160 CURVE",
"76 160 LINE",
"76 -205 LINE",
"258 -205 LINE",
"258 0 LINE",
"453 0 LINE",
"497 -219 OFFCURVE",
"576 -363 OFFCURVE",
"711 -492 CURVE"
);
}
);
width = 1229;
}
);
note = uni10B05;
},
{
glyphname = uni10B06;
lastChange = "2016-11-10 14:13:37 +0000";
layers = (
{
layerId = "CE62A97F-1FFA-40F4-90CE-7C43E9FFEEC9";
paths = (
{
closed = 1;
nodes = (
"520 -346 LINE",
"356 -307 OFFCURVE",
"301 -241 OFFCURVE",
"301 -106 CURVE SMOOTH",
"301 52 OFFCURVE",
"381 131 OFFCURVE",
"541 131 CURVE",
"541 291 LINE",
"356 300 OFFCURVE",
"301 356 OFFCURVE",
"301 516 CURVE SMOOTH",
"301 663 OFFCURVE",
"381 737 OFFCURVE",
"541 737 CURVE",
"541 897 LINE",
"273 897 OFFCURVE",
"113 755 OFFCURVE",
"113 518 CURVE SMOOTH",
"113 366 OFFCURVE",
"173 262 OFFCURVE",
"328 205 CURVE",
"179 133 OFFCURVE",
"113 32 OFFCURVE",
"113 -109 CURVE SMOOTH",
"113 -328 OFFCURVE",
"225 -443 OFFCURVE",
"461 -492 CURVE"
);
}
);
width = 643;
}
);
note = uni10B06;
},
{
glyphname = uni10B07;
lastChange = "2016-11-10 14:13:37 +0000";
layers = (
{
layerId = "CE62A97F-1FFA-40F4-90CE-7C43E9FFEEC9";
paths = (
{
closed = 1;
nodes = (
"520 -492 LINE",
"520 -166 LINE",
"359 -135 OFFCURVE",
"301 -86 OFFCURVE",
"301 18 CURVE SMOOTH",
"301 141 OFFCURVE",
"381 203 OFFCURVE",
"541 203 CURVE",
"541 340 LINE",
"361 345 OFFCURVE",
"301 398 OFFCURVE",
"301 543 CURVE SMOOTH",
"301 674 OFFCURVE",
"381 739 OFFCURVE",
"541 739 CURVE",
"541 899 LINE",
"272 899 OFFCURVE",
"113 770 OFFCURVE",
"113 555 CURVE SMOOTH",
"113 418 OFFCURVE",
"173 323 OFFCURVE",
"328 268 CURVE",
"185 213 OFFCURVE",
"113 128 OFFCURVE",
"113 12 CURVE SMOOTH",
"113 -115 OFFCURVE",
"188 -208 OFFCURVE",
"338 -266 CURVE",
"338 -492 LINE"
);
}
);
width = 643;
}
);
note = uni10B07;
},
{
glyphname = uni10B08;
lastChange = "2016-11-10 14:13:37 +0000";
layers = (
{
layerId = "CE62A97F-1FFA-40F4-90CE-7C43E9FFEEC9";
paths = (
{
closed = 1;
nodes = (
"1439 -242 OFFCURVE",
"1595 -47 OFFCURVE",
"1595 377 CURVE SMOOTH",
"1595 569 OFFCURVE",
"1577 701 OFFCURVE",
"1530 877 CURVE",
"1350 877 LINE",
"1401 669 OFFCURVE",
"1413 549 OFFCURVE",
"1413 385 CURVE SMOOTH",
"1413 57 OFFCURVE",
"1317 -94 OFFCURVE",
"1122 -94 CURVE SMOOTH",
"927 -94 OFFCURVE",
"831 57 OFFCURVE",
"831 385 CURVE SMOOTH",
"831 557 OFFCURVE",
"846 673 OFFCURVE",
"895 877 CURVE",
"715 877 LINE",
"691 786 OFFCURVE",
"672 724 OFFCURVE",
"657 693 CURVE SMOOTH",
"628 630 OFFCURVE",
"593 608 OFFCURVE",
"520 608 CURVE SMOOTH",
"404 608 OFFCURVE",
"356 664 OFFCURVE",
"356 788 CURVE SMOOTH",
"356 877 LINE",
"174 877 LINE",
"174 -221 LINE",
"356 -221 LINE",
"356 535 LINE",
"393 484 OFFCURVE",
"457 459 OFFCURVE",
"514 459 CURVE SMOOTH",
"565 459 OFFCURVE",
"611 472 OFFCURVE",
"651 498 CURVE",
"649 440 LINE",
"649 377 LINE SMOOTH",
"649 -47 OFFCURVE",
"805 -242 OFFCURVE",
"1122 -242 CURVE SMOOTH"
);
}
);
width = 1739;
}
);
note = uni10B08;
},
{
glyphname = uni10B09;
lastChange = "2016-11-10 14:13:37 +0000";
layers = (
{
layerId = "CE62A97F-1FFA-40F4-90CE-7C43E9FFEEC9";
paths = (
{
closed = 1;
nodes = (
"655 -492 OFFCURVE",
"738 -462 OFFCURVE",
"817 -402 CURVE SMOOTH",
"898 -342 OFFCURVE",
"957 -313 OFFCURVE",
"1024 -313 CURVE SMOOTH",
"1096 -313 OFFCURVE",
"1141 -356 OFFCURVE",
"1141 -436 CURVE SMOOTH",
"1141 -492 LINE",
"1280 -492 LINE",
"1293 -457 OFFCURVE",
"1300 -427 OFFCURVE",
"1300 -401 CURVE SMOOTH",
"1300 -262 OFFCURVE",
"1200 -164 OFFCURVE",
"1053 -164 CURVE SMOOTH",
"946 -164 OFFCURVE",
"862 -193 OFFCURVE",
"786 -253 CURVE SMOOTH",
"699 -320 OFFCURVE",
"651 -342 OFFCURVE",
"580 -342 CURVE SMOOTH",
"504 -342 OFFCURVE",
"448 -294 OFFCURVE",
"411 -198 CURVE SMOOTH",
"374 -103 OFFCURVE",
"356 44 OFFCURVE",
"356 242 CURVE SMOOTH",
"356 537 LINE",
"393 486 OFFCURVE",
"457 461 OFFCURVE",
"514 461 CURVE SMOOTH",
"565 461 OFFCURVE",
"611 474 OFFCURVE",
"651 500 CURVE",
"649 448 LINE",
"649 391 LINE SMOOTH",
"649 92 OFFCURVE",
"807 -57 OFFCURVE",
"1122 -57 CURVE SMOOTH",
"1437 -57 OFFCURVE",
"1595 99 OFFCURVE",
"1595 412 CURVE SMOOTH",
"1595 588 OFFCURVE",
"1577 715 OFFCURVE",
"1530 879 CURVE",
"1350 879 LINE",
"1399 688 OFFCURVE",
"1413 577 OFFCURVE",
"1413 424 CURVE SMOOTH",
"1413 203 OFFCURVE",
"1316 92 OFFCURVE",
"1122 92 CURVE SMOOTH",
"927 92 OFFCURVE",
"831 208 OFFCURVE",
"831 424 CURVE SMOOTH",
"831 587 OFFCURVE",
"847 696 OFFCURVE",
"895 879 CURVE",
"715 879 LINE",
"691 788 OFFCURVE",
"672 726 OFFCURVE",
"657 695 CURVE SMOOTH",
"628 632 OFFCURVE",
"593 610 OFFCURVE",
"520 610 CURVE SMOOTH",
"405 610 OFFCURVE",
"356 666 OFFCURVE",
"356 791 CURVE SMOOTH",
"356 879 LINE",
"174 879 LINE",
"174 246 LINE SMOOTH",
"174 69 OFFCURVE",
"188 -74 OFFCURVE",
"215 -181 CURVE SMOOTH",
"269 -397 OFFCURVE",
"375 -492 OFFCURVE",
"567 -492 CURVE SMOOTH"
);
}
);
width = 1739;
}
);
note = uni10B09;
},
{
glyphname = uni10B0A;
lastChange = "2016-11-10 14:13:37 +0000";
layers = (
{
layerId = "CE62A97F-1FFA-40F4-90CE-7C43E9FFEEC9";
paths = (
{
closed = 1;
nodes = (
"1292 0 LINE SMOOTH",
"1493 0 OFFCURVE",
"1602 70 OFFCURVE",
"1602 193 CURVE SMOOTH",
"1602 298 OFFCURVE",
"1559 354 OFFCURVE",
"1454 404 CURVE SMOOTH",
"1401 429 OFFCURVE",
"1320 456 OFFCURVE",
"1210 487 CURVE",
"1102 513 OFFCURVE",
"1027 533 OFFCURVE",
"986 548 CURVE SMOOTH",
"902 577 OFFCURVE",
"879 600 OFFCURVE",
"879 680 CURVE SMOOTH",
"879 757 OFFCURVE",
"839 812 OFFCURVE",
"760 847 CURVE SMOOTH",
"681 882 OFFCURVE",
"559 899 OFFCURVE",
"395 899 CURVE SMOOTH",
"238 899 OFFCURVE",
"70 862 OFFCURVE",
"-51 805 CURVE",
"4 670 LINE",
"151 723 OFFCURVE",
"285 750 OFFCURVE",
"408 750 CURVE SMOOTH",
"502 750 OFFCURVE",
"575 740 OFFCURVE",
"628 721 CURVE SMOOTH",
"681 702 OFFCURVE",
"707 669 OFFCURVE",
"707 623 CURVE SMOOTH",
"707 518 OFFCURVE",
"745 474 OFFCURVE",
"847 430 CURVE SMOOTH",
"898 408 OFFCURVE",
"972 385 OFFCURVE",
"1071 360 CURVE SMOOTH",
"1189 331 OFFCURVE",
"1277 303 OFFCURVE",
"1334 278 CURVE SMOOTH",
"1391 252 OFFCURVE",
"1419 226 OFFCURVE",
"1419 199 CURVE SMOOTH",
"1419 166 OFFCURVE",
"1378 150 OFFCURVE",
"1296 150 CURVE SMOOTH",
"358 150 LINE",
"358 0 LINE"
);
}
);
width = 1694;
}
);
note = uni10B0A;
},
{
glyphname = uni10B0B;
lastChange = "2016-11-10 14:13:37 +0000";
layers = (
{
layerId = "CE62A97F-1FFA-40F4-90CE-7C43E9FFEEC9";
paths = (
{
closed = 1;
nodes = (
"864 -492 LINE",
"864 0 LINE",
"1292 0 LINE SMOOTH",
"1493 0 OFFCURVE",
"1602 70 OFFCURVE",
"1602 193 CURVE SMOOTH",
"1602 298 OFFCURVE",
"1559 354 OFFCURVE",
"1454 404 CURVE SMOOTH",
"1401 429 OFFCURVE",
"1320 456 OFFCURVE",
"1210 487 CURVE",
"1102 513 OFFCURVE",
"1027 533 OFFCURVE",
"986 548 CURVE SMOOTH",
"902 577 OFFCURVE",
"879 600 OFFCURVE",
"879 680 CURVE SMOOTH",
"879 757 OFFCURVE",
"839 812 OFFCURVE",
"760 847 CURVE SMOOTH",
"681 882 OFFCURVE",
"559 899 OFFCURVE",
"395 899 CURVE SMOOTH",
"238 899 OFFCURVE",
"70 862 OFFCURVE",
"-51 805 CURVE",
"4 670 LINE",
"151 723 OFFCURVE",
"285 750 OFFCURVE",
"408 750 CURVE SMOOTH",
"502 750 OFFCURVE",
"575 740 OFFCURVE",
"628 721 CURVE SMOOTH",
"681 702 OFFCURVE",
"707 669 OFFCURVE",
"707 623 CURVE SMOOTH",
"707 518 OFFCURVE",
"745 474 OFFCURVE",
"847 430 CURVE SMOOTH",
"898 408 OFFCURVE",
"972 385 OFFCURVE",
"1071 360 CURVE SMOOTH",
"1189 331 OFFCURVE",
"1277 303 OFFCURVE",
"1334 278 CURVE SMOOTH",
"1391 252 OFFCURVE",
"1419 226 OFFCURVE",
"1419 199 CURVE SMOOTH",
"1419 166 OFFCURVE",
"1378 150 OFFCURVE",
"1296 150 CURVE SMOOTH",
"358 150 LINE",
"358 0 LINE",
"682 0 LINE",
"682 -492 LINE"
);
}
);
width = 1694;
}
);
note = uni10B0B;
},
{
glyphname = uni10B0C;
lastChange = "2016-11-10 14:13:37 +0000";
layers = (
{
layerId = "CE62A97F-1FFA-40F4-90CE-7C43E9FFEEC9";
paths = (
{
closed = 1;
nodes = (
"512 186 OFFCURVE",
"649 304 OFFCURVE",
"649 563 CURVE SMOOTH",
"649 639 OFFCURVE",
"633 769 OFFCURVE",
"608 877 CURVE",
"465 877 LINE",
"465 596 LINE SMOOTH",
"465 411 OFFCURVE",
"394 336 OFFCURVE",
"205 336 CURVE SMOOTH",
"41 336 LINE",
"41 207 LINE",
"91 193 OFFCURVE",
"147 186 OFFCURVE",
"209 186 CURVE SMOOTH"
);
}
);
width = 813;
}
);
note = uni10B0C;
},
{
glyphname = uni10B0D;
lastChange = "2016-11-10 14:13:37 +0000";
layers = (
{
layerId = "CE62A97F-1FFA-40F4-90CE-7C43E9FFEEC9";
paths = (
{
closed = 1;
nodes = (
"438 -344 LINE",
"438 188 LINE",
"721 208 OFFCURVE",
"846 324 OFFCURVE",
"846 563 CURVE SMOOTH",
"846 636 OFFCURVE",
"832 740 OFFCURVE",
"805 877 CURVE",
"662 877 LINE",
"662 596 LINE SMOOTH",
"662 408 OFFCURVE",
"576 336 OFFCURVE",
"344 336 CURVE SMOOTH",
"41 336 LINE",
"41 207 LINE",
"113 195 OFFCURVE",
"185 188 OFFCURVE",
"256 186 CURVE",
"256 -344 LINE"
);
}
);
width = 1010;
}
);
note = uni10B0D;
},
{
glyphname = uni10B0E;
lastChange = "2016-11-10 14:13:37 +0000";
layers = (
{
layerId = "CE62A97F-1FFA-40F4-90CE-7C43E9FFEEC9";
paths = (
{
closed = 1;
nodes = (
"213 -221 LINE",
"286 -90 OFFCURVE",
"335 5 OFFCURVE",
"359 64 CURVE SMOOTH",
"407 181 OFFCURVE",
"432 293 OFFCURVE",
"432 432 CURVE SMOOTH",
"432 587 OFFCURVE",
"345 781 OFFCURVE",
"225 877 CURVE",
"43 877 LINE",
"156 776 OFFCURVE",
"250 567 OFFCURVE",
"250 432 CURVE SMOOTH",
"250 241 OFFCURVE",
"198 64 OFFCURVE",
"41 -221 CURVE"
);
}
);
width = 555;
}
);
note = uni10B0E;
},
{
glyphname = uni10B0F;
lastChange = "2016-11-10 14:13:37 +0000";
layers = (
{
layerId = "CE62A97F-1FFA-40F4-90CE-7C43E9FFEEC9";
paths = (
{
closed = 1;
nodes = (
"492 -182 LINE",
"492 -59 LINE SMOOTH",
"492 54 OFFCURVE",
"469 142 OFFCURVE",
"424 205 CURVE",
"464 183 OFFCURVE",
"512 172 OFFCURVE",
"567 172 CURVE SMOOTH",
"828 172 OFFCURVE",
"961 299 OFFCURVE",
"961 512 CURVE SMOOTH",
"961 660 OFFCURVE",
"893 832 OFFCURVE",
"784 956 CURVE",
"637 866 LINE",
"728 751 OFFCURVE",
"778 624 OFFCURVE",
"778 516 CURVE SMOOTH",
"778 392 OFFCURVE",
"703 322 OFFCURVE",
"567 322 CURVE SMOOTH",
"440 322 OFFCURVE",
"302 399 OFFCURVE",
"190 528 CURVE",
"74 403 LINE",
"235 252 OFFCURVE",
"303 110 OFFCURVE",
"303 -59 CURVE SMOOTH",
"303 -182 LINE"
);
}
);
width = 1073;
}
);
note = uni10B0F;
},
{
glyphname = uni10B10;
lastChange = "2016-11-10 14:13:37 +0000";
layers = (
{
layerId = "CE62A97F-1FFA-40F4-90CE-7C43E9FFEEC9";
paths = (
{
closed = 1;
nodes = (
"260 -492 LINE",
"473 -183 OFFCURVE",
"612 220 OFFCURVE",
"612 516 CURVE SMOOTH",
"612 769 OFFCURVE",
"516 897 OFFCURVE",
"332 897 CURVE SMOOTH",
"180 897 OFFCURVE",
"74 797 OFFCURVE",
"74 653 CURVE SMOOTH",
"74 476 OFFCURVE",
"177 310 OFFCURVE",
"383 156 CURVE",
"340 -10 OFFCURVE",
"241 -226 OFFCURVE",
"88 -492 CURVE"
);
},
{
closed = 1;
nodes = (
"311 437 OFFCURVE",
"256 540 OFFCURVE",
"256 657 CURVE SMOOTH",
"256 724 OFFCURVE",
"291 748 OFFCURVE",
"332 748 CURVE SMOOTH",
"363 748 OFFCURVE",
"388 724 OFFCURVE",
"405 677 CURVE SMOOTH",
"422 629 OFFCURVE",
"430 561 OFFCURVE",
"430 473 CURVE",
"424 369 LINE",
"422 350 LINE"
);
}
);
width = 725;
}
);
note = uni10B10;
},
{
glyphname = uni10B11;
lastChange = "2016-11-10 14:13:37 +0000";
layers = (
{
layerId = "CE62A97F-1FFA-40F4-90CE-7C43E9FFEEC9";
paths = (
{
closed = 1;
nodes = (
"854 -242 OFFCURVE",
"1008 -40 OFFCURVE",
"1012 365 CURVE",
"1073 295 OFFCURVE",
"1157 260 OFFCURVE",
"1262 260 CURVE SMOOTH",
"1489 260 OFFCURVE",
"1602 387 OFFCURVE",
"1602 641 CURVE SMOOTH",
"1602 694 OFFCURVE",
"1588 773 OFFCURVE",
"1561 877 CURVE",
"1417 877 LINE",
"1417 696 LINE SMOOTH",
"1417 505 OFFCURVE",
"1368 420 OFFCURVE",
"1245 420 CURVE SMOOTH",
"1208 420 OFFCURVE",
"1175 426 OFFCURVE",
"1148 438 CURVE SMOOTH",
"1092 461 OFFCURVE",
"1052 510 OFFCURVE",
"1021 591 CURVE SMOOTH",
"1005 632 OFFCURVE",
"980 727 OFFCURVE",
"946 877 CURVE",
"766 877 LINE",
"817 669 OFFCURVE",
"829 549 OFFCURVE",
"829 385 CURVE SMOOTH",
"829 57 OFFCURVE",
"738 -94 OFFCURVE",
"557 -94 CURVE SMOOTH",
"390 -94 OFFCURVE",
"295 16 OFFCURVE",
"295 209 CURVE SMOOTH",
"295 329 OFFCURVE",
"326 443 OFFCURVE",
"405 606 CURVE SMOOTH",
"481 767 OFFCURVE",
"514 885 OFFCURVE",
"514 1014 CURVE SMOOTH",
"514 1150 OFFCURVE",
"476 1275 OFFCURVE",
"424 1335 CURVE",
"244 1335 LINE",
"305 1282 OFFCURVE",
"344 1147 OFFCURVE",
"344 1016 CURVE SMOOTH",
"344 907 OFFCURVE",
"316 815 OFFCURVE",
"229 636 CURVE SMOOTH",
"148 473 OFFCURVE",
"113 347 OFFCURVE",
"113 207 CURVE SMOOTH",
"113 -82 OFFCURVE",
"268 -242 OFFCURVE",
"549 -242 CURVE SMOOTH"
);
}
);
width = 1714;
}
);
note = uni10B11;
},
{
glyphname = uni10B12;
lastChange = "2016-11-10 14:13:37 +0000";
layers = (
{
layerId = "CE62A97F-1FFA-40F4-90CE-7C43E9FFEEC9";
paths = (
{
closed = 1;
nodes = (
"693 -492 OFFCURVE",
"777 -463 OFFCURVE",
"878 -392 CURVE SMOOTH",
"989 -317 OFFCURVE",
"1047 -293 OFFCURVE",
"1122 -293 CURVE SMOOTH",
"1243 -293 OFFCURVE",
"1309 -339 OFFCURVE",
"1309 -455 CURVE SMOOTH",
"1309 -492 LINE",
"1448 -492 LINE",
"1461 -453 OFFCURVE",
"1468 -424 OFFCURVE",
"1468 -403 CURVE SMOOTH",
"1468 -239 OFFCURVE",
"1342 -143 OFFCURVE",
"1139 -143 CURVE SMOOTH",
"1030 -143 OFFCURVE",
"938 -174 OFFCURVE",
"837 -242 CURVE SMOOTH",
"776 -283 OFFCURVE",
"731 -310 OFFCURVE",
"701 -323 CURVE SMOOTH",
"671 -336 OFFCURVE",
"641 -342 OFFCURVE",
"612 -342 CURVE SMOOTH",
"424 -342 OFFCURVE",
"346 -217 OFFCURVE",
"346 78 CURVE SMOOTH",
"346 122 OFFCURVE",
"342 176 OFFCURVE",
"335 239 CURVE SMOOTH",
"330 285 LINE",
"379 211 OFFCURVE",
"460 174 OFFCURVE",
"573 174 CURVE SMOOTH",
"738 174 OFFCURVE",
"826 235 OFFCURVE",
"881 387 CURVE",
"928 240 OFFCURVE",
"1012 174 OFFCURVE",
"1176 174 CURVE SMOOTH",
"1441 174 OFFCURVE",
"1548 297 OFFCURVE",
"1548 590 CURVE SMOOTH",
"1548 663 OFFCURVE",
"1534 760 OFFCURVE",
"1507 879 CURVE",
"1364 879 LINE",
"1364 592 LINE SMOOTH",
"1364 396 OFFCURVE",
"1308 324 OFFCURVE",
"1163 324 CURVE SMOOTH",
"1020 324 OFFCURVE",
"973 402 OFFCURVE",
"973 606 CURVE SMOOTH",
"973 663 OFFCURVE",
"959 754 OFFCURVE",
"932 879 CURVE",
"788 879 LINE",
"788 592 LINE SMOOTH",
"788 399 OFFCURVE",
"726 324 OFFCURVE",
"563 324 CURVE SMOOTH",
"431 324 OFFCURVE",
"365 389 OFFCURVE",
"365 518 CURVE SMOOTH",
"365 618 OFFCURVE",
"389 738 OFFCURVE",
"438 879 CURVE",
"266 879 LINE",
"209 728 OFFCURVE",
"164 487 OFFCURVE",
"164 166 CURVE SMOOTH",
"164 -309 OFFCURVE",
"290 -492 OFFCURVE",
"598 -492 CURVE SMOOTH"
);
}
);
width = 1681;
}
);
note = uni10B12;
},
{
glyphname = uni10B13;
lastChange = "2016-11-10 14:13:37 +0000";
layers = (
{
layerId = "CE62A97F-1FFA-40F4-90CE-7C43E9FFEEC9";
paths = (
{
closed = 1;
nodes = (
"356 -492 LINE",
"356 78 LINE SMOOTH",
"356 122 OFFCURVE",
"352 176 OFFCURVE",
"345 239 CURVE SMOOTH",
"340 285 LINE",
"385 211 OFFCURVE",
"458 174 OFFCURVE",
"561 174 CURVE SMOOTH",
"713 174 OFFCURVE",
"785 224 OFFCURVE",
"842 367 CURVE",
"902 226 OFFCURVE",
"977 174 OFFCURVE",
"1137 174 CURVE SMOOTH",
"1398 174 OFFCURVE",
"1509 292 OFFCURVE",
"1509 588 CURVE SMOOTH",
"1509 666 OFFCURVE",
"1495 763 OFFCURVE",
"1468 879 CURVE",
"1325 879 LINE",
"1325 590 LINE SMOOTH",
"1325 399 OFFCURVE",
"1270 324 OFFCURVE",
"1122 324 CURVE SMOOTH",
"983 324 OFFCURVE",
"934 401 OFFCURVE",
"934 604 CURVE SMOOTH",
"934 663 OFFCURVE",
"920 754 OFFCURVE",
"893 879 CURVE",
"750 879 LINE",
"750 590 LINE SMOOTH",
"750 397 OFFCURVE",
"692 324 OFFCURVE",
"547 324 CURVE SMOOTH",
"410 324 OFFCURVE",
"358 403 OFFCURVE",
"358 610 CURVE SMOOTH",
"358 683 OFFCURVE",
"344 773 OFFCURVE",
"317 879 CURVE",
"174 879 LINE",
"174 -492 LINE"
);
}
);
width = 1642;
}
);
note = uni10B13;
},
{
glyphname = uni10B14;
lastChange = "2016-11-10 14:13:37 +0000";
layers = (
{
layerId = "CE62A97F-1FFA-40F4-90CE-7C43E9FFEEC9";
paths = (
{
closed = 1;
nodes = (
"508 -219 LINE",
"361 -46 OFFCURVE",
"295 134 OFFCURVE",
"295 354 CURVE SMOOTH",
"295 495 OFFCURVE",
"311 598 OFFCURVE",
"342 663 CURVE SMOOTH",
"373 728 OFFCURVE",
"422 760 OFFCURVE",
"487 760 CURVE SMOOTH",
"558 760 OFFCURVE",
"604 705 OFFCURVE",
"604 608 CURVE SMOOTH",
"604 453 OFFCURVE",
"710 367 OFFCURVE",
"897 367 CURVE SMOOTH",
"1112 367 OFFCURVE",
"1217 471 OFFCURVE",
"1217 662 CURVE SMOOTH",
"1217 713 OFFCURVE",
"1203 785 OFFCURVE",
"1176 879 CURVE",
"1034 879 LINE",
"1034 694 LINE SMOOTH",
"1034 574 OFFCURVE",
"993 516 OFFCURVE",
"897 516 CURVE SMOOTH",
"820 516 OFFCURVE",
"778 558 OFFCURVE",
"778 641 CURVE SMOOTH",
"778 808 OFFCURVE",
"675 899 OFFCURVE",
"487 899 CURVE SMOOTH",
"230 899 OFFCURVE",
"113 730 OFFCURVE",
"113 354 CURVE SMOOTH",
"113 127 OFFCURVE",
"185 -64 OFFCURVE",
"328 -219 CURVE"
);
}
);
width = 1290;
}
);
note = uni10B14;
},
{
glyphname = uni10B15;
lastChange = "2016-11-10 14:13:37 +0000";
layers = (
{
layerId = "CE62A97F-1FFA-40F4-90CE-7C43E9FFEEC9";
paths = (
{
closed = 1;
nodes = (
"623 -221 LINE SMOOTH",
"748 -221 OFFCURVE",
"846 -202 OFFCURVE",
"917 -163 CURVE SMOOTH",
"1057 -86 OFFCURVE",
"1124 77 OFFCURVE",
"1124 354 CURVE SMOOTH",
"1124 521 OFFCURVE",
"1105 756 OFFCURVE",
"1085 877 CURVE",
"942 877 LINE",
"942 317 LINE SMOOTH",
"942 36 OFFCURVE",
"844 -82 OFFCURVE",
"623 -82 CURVE SMOOTH",
"311 -82 LINE",
"412 42 OFFCURVE",
"453 184 OFFCURVE",
"453 383 CURVE SMOOTH",
"453 708 OFFCURVE",
"345 897 OFFCURVE",
"154 897 CURVE SMOOTH",
"105 897 OFFCURVE",
"60 888 OFFCURVE",
"20 870 CURVE",
"59 727 LINE",
"82 738 OFFCURVE",
"106 743 OFFCURVE",
"133 743 CURVE SMOOTH",
"157 743 OFFCURVE",
"180 727 OFFCURVE",
"201 696 CURVE SMOOTH",
"244 633 OFFCURVE",
"270 512 OFFCURVE",
"270 365 CURVE SMOOTH",
"270 169 OFFCURVE",
"226 26 OFFCURVE",
"123 -82 CURVE",
"59 -82 LINE",
"59 -221 LINE"
);
}
);
width = 1288;
}
);
note = uni10B15;
},
{
glyphname = uni10B16;
lastChange = "2016-11-10 14:13:37 +0000";
layers = (
{
layerId = "CE62A97F-1FFA-40F4-90CE-7C43E9FFEEC9";
paths = (
{
closed = 1;
nodes = (
"1063 -492 LINE",
"1070 -433 OFFCURVE",
"1073 -374 OFFCURVE",
"1073 -313 CURVE SMOOTH",
"1073 -60 OFFCURVE",
"977 96 OFFCURVE",
"809 96 CURVE SMOOTH",
"730 96 OFFCURVE",
"677 67 OFFCURVE",
"637 28 CURVE SMOOTH",
"597 -12 OFFCURVE",
"569 -60 OFFCURVE",
"545 -99 CURVE SMOOTH",
"520 -139 OFFCURVE",
"496 -168 OFFCURVE",
"463 -168 CURVE SMOOTH",
"428 -168 OFFCURVE",
"410 -136 OFFCURVE",
"410 -72 CURVE SMOOTH",
"410 8 OFFCURVE",
"449 98 OFFCURVE",
"487 196 CURVE SMOOTH",
"525 294 OFFCURVE",
"563 402 OFFCURVE",
"563 518 CURVE SMOOTH",
"563 765 OFFCURVE",
"464 899 OFFCURVE",
"279 899 CURVE SMOOTH",
"126 899 OFFCURVE",
"20 799 OFFCURVE",
"20 655 CURVE SMOOTH",
"20 478 OFFCURVE",
"102 333 OFFCURVE",
"303 182 CURVE",
"281 121 LINE SMOOTH",
"252 48 OFFCURVE",
"238 -25 OFFCURVE",
"238 -96 CURVE SMOOTH",
"238 -229 OFFCURVE",
"319 -319 OFFCURVE",
"444 -319 CURVE SMOOTH",
"543 -319 OFFCURVE",
"619 -276 OFFCURVE",
"672 -191 CURVE SMOOTH",
"708 -132 OFFCURVE",
"732 -96 OFFCURVE",
"745 -83 CURVE SMOOTH",
"758 -70 OFFCURVE",
"772 -63 OFFCURVE",
"788 -63 CURVE SMOOTH",
"857 -63 OFFCURVE",
"891 -153 OFFCURVE",
"891 -332 CURVE SMOOTH",
"891 -364 OFFCURVE",
"888 -417 OFFCURVE",
"883 -492 CURVE"
);
},
{
closed = 1;
nodes = (
"258 442 OFFCURVE",
"203 534 OFFCURVE",
"203 659 CURVE SMOOTH",
"203 726 OFFCURVE",
"238 750 OFFCURVE",
"279 750 CURVE SMOOTH",
"312 750 OFFCURVE",
"338 725 OFFCURVE",
"357 676 CURVE SMOOTH",
"376 627 OFFCURVE",
"385 560 OFFCURVE",
"385 475 CURVE SMOOTH",
"385 466 OFFCURVE",
"384 455 OFFCURVE",
"382 443 CURVE SMOOTH",
"378 419 OFFCURVE",
"373 395 OFFCURVE",
"369 377 CURVE SMOOTH",
"367 368 OFFCURVE",
"366 361 OFFCURVE",
"365 358 CURVE"
);
}
);
width = 1122;
}
);
note = uni10B16;
},
{
glyphname = uni10B17;
lastChange = "2016-11-10 14:13:37 +0000";
layers = (
{
layerId = "CE62A97F-1FFA-40F4-90CE-7C43E9FFEEC9";
paths = (
{
closed = 1;
nodes = (
"356 -283 LINE",
"356 260 LINE",
"413 201 OFFCURVE",
"494 172 OFFCURVE",
"598 172 CURVE SMOOTH",
"901 172 OFFCURVE",
"1030 294 OFFCURVE",
"1030 557 CURVE SMOOTH",
"1030 622 OFFCURVE",
"1014 764 OFFCURVE",
"989 879 CURVE",
"846 879 LINE",
"846 586 LINE SMOOTH",
"846 395 OFFCURVE",
"776 322 OFFCURVE",
"584 322 CURVE SMOOTH",
"455 322 OFFCURVE",
"400 347 OFFCURVE",
"375 411 CURVE SMOOTH",
"362 443 OFFCURVE",
"356 499 OFFCURVE",
"356 580 CURVE SMOOTH",
"356 879 LINE",
"174 879 LINE",
"174 -283 LINE"
);
}
);
width = 1163;
}
);
note = uni10B17;
},
{
glyphname = uni10B18;
lastChange = "2016-11-10 14:13:37 +0000";
layers = (
{
layerId = "CE62A97F-1FFA-40F4-90CE-7C43E9FFEEC9";
paths = (
{
closed = 1;
nodes = (
"763 -492 OFFCURVE",
"891 -385 OFFCURVE",
"920 -205 CURVE SMOOTH",
"941 -61 OFFCURVE",
"986 -10 OFFCURVE",
"1081 -10 CURVE SMOOTH",
"1189 -10 OFFCURVE",
"1243 -74 OFFCURVE",
"1243 -201 CURVE SMOOTH",
"1243 -408 LINE",
"1382 -408 LINE",
"1409 -326 OFFCURVE",
"1423 -260 OFFCURVE",
"1423 -211 CURVE SMOOTH",
"1423 12 OFFCURVE",
"1297 139 OFFCURVE",
"1081 139 CURVE SMOOTH",
"896 139 OFFCURVE",
"773 25 OFFCURVE",
"745 -156 CURVE SMOOTH",
"726 -280 OFFCURVE",
"671 -342 OFFCURVE",
"580 -342 CURVE SMOOTH",
"393 -342 OFFCURVE",
"295 -156 OFFCURVE",
"295 203 CURVE SMOOTH",
"295 343 OFFCURVE",
"299 448 OFFCURVE",
"307 518 CURVE",
"342 342 OFFCURVE",
"453 262 OFFCURVE",
"641 262 CURVE SMOOTH",
"914 262 OFFCURVE",
"1034 376 OFFCURVE",
"1034 635 CURVE SMOOTH",
"1034 682 OFFCURVE",
"1017 794 OFFCURVE",
"993 879 CURVE",
"850 879 LINE",
"850 659 LINE SMOOTH",
"850 475 OFFCURVE",
"792 412 OFFCURVE",
"631 412 CURVE SMOOTH",
"568 412 OFFCURVE",
"520 426 OFFCURVE",
"486 454 CURVE SMOOTH",
"417 509 OFFCURVE",
"387 623 OFFCURVE",
"387 834 CURVE SMOOTH",
"387 879 LINE",
"215 879 LINE",
"135 586 OFFCURVE",
"113 399 OFFCURVE",
"113 182 CURVE SMOOTH",
"113 -275 OFFCURVE",
"264 -492 OFFCURVE",
"588 -492 CURVE SMOOTH"
);
}
);
width = 1403;
}
);
note = uni10B18;
},
{
glyphname = uni10B19;
lastChange = "2016-11-10 14:13:37 +0000";
layers = (
{
layerId = "CE62A97F-1FFA-40F4-90CE-7C43E9FFEEC9";
paths = (
{
closed = 1;
nodes = (
"274 0 LINE",
"379 133 OFFCURVE",
"432 266 OFFCURVE",
"432 434 CURVE SMOOTH",
"432 461 OFFCURVE",
"429 490 OFFCURVE",
"424 520 CURVE",
"576 393 OFFCURVE",
"815 311 OFFCURVE",
"1032 311 CURVE SMOOTH",
"1299 311 OFFCURVE",
"1487 431 OFFCURVE",
"1487 608 CURVE SMOOTH",
"1487 781 OFFCURVE",
"1326 899 OFFCURVE",
"1077 899 CURVE SMOOTH",
"854 899 OFFCURVE",
"666 788 OFFCURVE",
"571 596 CURVE",
"443 672 OFFCURVE",
"344 774 OFFCURVE",
"295 879 CURVE",
"104 879 LINE",
"205 740 OFFCURVE",
"250 613 OFFCURVE",
"250 434 CURVE SMOOTH",
"250 286 OFFCURVE",
"195 132 OFFCURVE",
"102 0 CURVE"
);
},
{
closed = 1;
nodes = (
"927 461 OFFCURVE",
"824 481 OFFCURVE",
"723 520 CURVE",
"775 665 OFFCURVE",
"906 750 OFFCURVE",
"1069 750 CURVE SMOOTH",
"1221 750 OFFCURVE",
"1305 696 OFFCURVE",
"1305 608 CURVE SMOOTH",
"1305 523 OFFCURVE",
"1195 461 OFFCURVE",
"1030 461 CURVE SMOOTH"
);
}
);
width = 1579;
}
);
note = uni10B19;
},
{
glyphname = uni10B1A;
lastChange = "2016-11-10 14:13:37 +0000";
layers = (
{
layerId = "CE62A97F-1FFA-40F4-90CE-7C43E9FFEEC9";
paths = (
{
closed = 1;
nodes = (
"943 -240 OFFCURVE",
"1118 -47 OFFCURVE",
"1118 324 CURVE SMOOTH",
"1118 529 OFFCURVE",
"1076 714 OFFCURVE",
"991 879 CURVE",
"811 879 LINE",
"911 639 OFFCURVE",
"936 496 OFFCURVE",
"936 315 CURVE SMOOTH",
"936 44 OFFCURVE",
"827 -92 OFFCURVE",
"610 -92 CURVE SMOOTH",
"406 -92 OFFCURVE",
"295 20 OFFCURVE",
"295 211 CURVE SMOOTH",
"295 331 OFFCURVE",
"347 444 OFFCURVE",
"470 608 CURVE SMOOTH",
"590 765 OFFCURVE",
"645 887 OFFCURVE",
"645 1016 CURVE SMOOTH",
"645 1138 OFFCURVE",
"605 1245 OFFCURVE",
"524 1337 CURVE",
"334 1337 LINE",
"418 1265 OFFCURVE",
"475 1141 OFFCURVE",
"475 1018 CURVE SMOOTH",
"475 906 OFFCURVE",
"422 802 OFFCURVE",
"294 638 CURVE SMOOTH",
"174 485 OFFCURVE",
"113 349 OFFCURVE",
"113 209 CURVE SMOOTH",
"113 -78 OFFCURVE",
"281 -237 OFFCURVE",
"600 -240 CURVE SMOOTH"
);
}
);
width = 1262;
}
);
note = uni10B1A;
},
{
glyphname = uni10B1B;
lastChange = "2016-11-10 14:13:37 +0000";
layers = (
{
layerId = "CE62A97F-1FFA-40F4-90CE-7C43E9FFEEC9";
paths = (
{
closed = 1;
nodes = (
"100 -492 LINE SMOOTH",
"509 -492 OFFCURVE",
"719 -327 OFFCURVE",
"719 29 CURVE SMOOTH",
"719 313 OFFCURVE",
"691 529 OFFCURVE",
"635 678 CURVE SMOOTH",
"579 827 OFFCURVE",
"497 901 OFFCURVE",
"389 901 CURVE SMOOTH",
"337 901 OFFCURVE",
"290 883 OFFCURVE",
"249 846 CURVE SMOOTH",
"166 772 OFFCURVE",
"113 624 OFFCURVE",
"113 483 CURVE SMOOTH",
"113 275 OFFCURVE",
"237 183 OFFCURVE",
"537 172 CURVE",
"537 14 LINE SMOOTH",
"537 -139 OFFCURVE",
"498 -213 OFFCURVE",
"423 -263 CURVE SMOOTH",
"348 -313 OFFCURVE",
"233 -342 OFFCURVE",
"68 -342 CURVE SMOOTH",
"-819 -342 LINE",
"-819 -492 LINE"
);
},
{
closed = 1;
nodes = (
"375 334 OFFCURVE",
"295 385 OFFCURVE",
"295 492 CURVE SMOOTH",
"295 560 OFFCURVE",
"305 620 OFFCURVE",
"325 673 CURVE SMOOTH",
"344 726 OFFCURVE",
"366 752 OFFCURVE",
"389 752 CURVE SMOOTH",
"419 752 OFFCURVE",
"447 715 OFFCURVE",
"472 641 CURVE SMOOTH",
"497 567 OFFCURVE",
"517 461 OFFCURVE",
"530 322 CURVE"
);
}
);
width = 872;
}
);
note = uni10B1B;
},
{
glyphname = uni10B1C;
lastChange = "2016-11-10 14:13:37 +0000";
layers = (
{
layerId = "CE62A97F-1FFA-40F4-90CE-7C43E9FFEEC9";
paths = (
{
closed = 1;
nodes = (
"981 -121 LINE",
"1000 -32 OFFCURVE",
"1010 67 OFFCURVE",
"1010 178 CURVE SMOOTH",
"1010 431 OFFCURVE",
"913 588 OFFCURVE",
"745 588 CURVE SMOOTH",
"652 588 OFFCURVE",
"577 544 OFFCURVE",
"522 456 CURVE SMOOTH",
"482 393 LINE SMOOTH",
"453 347 OFFCURVE",
"426 324 OFFCURVE",
"399 324 CURVE SMOOTH",
"379 324 OFFCURVE",
"365 354 OFFCURVE",
"358 414 CURVE SMOOTH",
"350 473 OFFCURVE",
"346 560 OFFCURVE",
"346 674 CURVE SMOOTH",
"346 1163 OFFCURVE",
"435 1407 OFFCURVE",
"612 1407 CURVE SMOOTH",
"659 1407 OFFCURVE",
"705 1400 OFFCURVE",
"748 1386 CURVE",
"748 1532 LINE",
"707 1548 OFFCURVE",
"655 1556 OFFCURVE",
"590 1556 CURVE SMOOTH",
"299 1556 OFFCURVE",
"164 1259 OFFCURVE",
"164 668 CURVE SMOOTH",
"164 497 OFFCURVE",
"180 371 OFFCURVE",
"213 292 CURVE SMOOTH",
"246 212 OFFCURVE",
"302 172 OFFCURVE",
"381 172 CURVE SMOOTH",
"480 172 OFFCURVE",
"556 215 OFFCURVE",
"609 300 CURVE SMOOTH",
"645 359 OFFCURVE",
"669 395 OFFCURVE",
"682 408 CURVE SMOOTH",
"695 421 OFFCURVE",
"709 428 OFFCURVE",
"725 428 CURVE SMOOTH",
"793 428 OFFCURVE",
"827 339 OFFCURVE",
"827 160 CURVE SMOOTH",
"827 61 OFFCURVE",
"820 -33 OFFCURVE",
"805 -121 CURVE"
);
}
);
width = 1059;
}
);
note = uni10B1C;
},
{
glyphname = uni10B1D;
lastChange = "2016-11-10 14:13:37 +0000";
layers = (
{
layerId = "CE62A97F-1FFA-40F4-90CE-7C43E9FFEEC9";
paths = (
{
closed = 1;
nodes = (
"1563 -492 LINE",
"1596 -440 OFFCURVE",
"1632 -334 OFFCURVE",
"1632 -258 CURVE SMOOTH",
"1632 -55 OFFCURVE",
"1503 57 OFFCURVE",
"1255 57 CURVE SMOOTH",
"1148 57 OFFCURVE",
"1035 14 OFFCURVE",
"917 -73 CURVE SMOOTH",
"793 -164 OFFCURVE",
"712 -203 OFFCURVE",
"631 -203 CURVE SMOOTH",
"472 -203 OFFCURVE",
"393 -105 OFFCURVE",
"393 90 CURVE SMOOTH",
"393 112 OFFCURVE",
"399 169 OFFCURVE",
"412 260 CURVE SMOOTH",
"424 351 OFFCURVE",
"430 409 OFFCURVE",
"430 434 CURVE SMOOTH",
"430 461 OFFCURVE",
"427 490 OFFCURVE",
"422 520 CURVE",
"574 393 OFFCURVE",
"813 311 OFFCURVE",
"1030 311 CURVE SMOOTH",
"1297 311 OFFCURVE",
"1485 431 OFFCURVE",
"1485 608 CURVE SMOOTH",
"1485 781 OFFCURVE",
"1324 899 OFFCURVE",
"1075 899 CURVE SMOOTH",
"1007 899 OFFCURVE",
"939 885 OFFCURVE",
"872 858 CURVE SMOOTH",
"736 802 OFFCURVE",
"620 700 OFFCURVE",
"569 596 CURVE",
"441 672 OFFCURVE",
"342 774 OFFCURVE",
"293 879 CURVE",
"102 879 LINE",
"203 740 OFFCURVE",
"248 613 OFFCURVE",
"248 434 CURVE SMOOTH",
"248 411 OFFCURVE",
"238 324 OFFCURVE",
"217 173 CURVE SMOOTH",
"213 144 OFFCURVE",
"211 121 OFFCURVE",
"211 106 CURVE SMOOTH",
"211 -215 OFFCURVE",
"337 -362 OFFCURVE",
"625 -362 CURVE SMOOTH",
"738 -362 OFFCURVE",
"850 -319 OFFCURVE",
"961 -232 CURVE SMOOTH",
"1072 -144 OFFCURVE",
"1155 -102 OFFCURVE",
"1239 -102 CURVE SMOOTH",
"1380 -102 OFFCURVE",
"1450 -162 OFFCURVE",
"1450 -281 CURVE SMOOTH",
"1450 -362 OFFCURVE",
"1423 -424 OFFCURVE",
"1386 -492 CURVE"
);
},
{
closed = 1;
nodes = (
"925 461 OFFCURVE",
"822 481 OFFCURVE",
"721 520 CURVE",
"765 643 OFFCURVE",
"920 750 OFFCURVE",
"1067 750 CURVE SMOOTH",
"1219 750 OFFCURVE",
"1303 696 OFFCURVE",
"1303 608 CURVE SMOOTH",
"1303 523 OFFCURVE",
"1193 461 OFFCURVE",
"1028 461 CURVE SMOOTH"
);
}
);
width = 1681;
}
);
note = uni10B1D;
},
{
glyphname = uni10B1E;
lastChange = "2016-11-10 14:13:37 +0000";
layers = (
{
layerId = "CE62A97F-1FFA-40F4-90CE-7C43E9FFEEC9";
paths = (
{
closed = 1;
nodes = (
"991 -242 OFFCURVE",
"1180 -45 OFFCURVE",
"1180 379 CURVE SMOOTH",
"1180 879 LINE",
"997 879 LINE",
"997 387 LINE SMOOTH",
"997 59 OFFCURVE",
"868 -94 OFFCURVE",
"608 -94 CURVE SMOOTH",
"469 -94 OFFCURVE",
"377 2 OFFCURVE",
"334 193 CURVE",
"428 193 LINE SMOOTH",
"616 193 OFFCURVE",
"709 263 OFFCURVE",
"709 428 CURVE SMOOTH",
"709 719 OFFCURVE",
"597 899 OFFCURVE",
"420 899 CURVE SMOOTH",
"367 899 OFFCURVE",
"319 879 OFFCURVE",
"275 839 CURVE SMOOTH",
"187 758 OFFCURVE",
"133 605 OFFCURVE",
"133 422 CURVE SMOOTH",
"133 -11 OFFCURVE",
"297 -242 OFFCURVE",
"608 -242 CURVE SMOOTH"
);
},
{
closed = 1;
nodes = (
"315 372 LINE",
"315 410 LINE SMOOTH",
"315 517 OFFCURVE",
"324 601 OFFCURVE",
"343 661 CURVE SMOOTH",
"362 720 OFFCURVE",
"388 750 OFFCURVE",
"422 750 CURVE SMOOTH",
"456 750 OFFCURVE",
"482 722 OFFCURVE",
"500 667 CURVE SMOOTH",
"517 612 OFFCURVE",
"526 533 OFFCURVE",
"526 432 CURVE SMOOTH",
"526 368 OFFCURVE",
"495 332 OFFCURVE",
"408 332 CURVE SMOOTH",
"317 332 LINE"
);
}
);
width = 1333;
}
);
note = uni10B1E;
},
{
glyphname = uni10B1F;
lastChange = "2016-11-10 14:13:37 +0000";
layers = (
{
layerId = "CE62A97F-1FFA-40F4-90CE-7C43E9FFEEC9";
paths = (
{
closed = 1;
nodes = (
"999 -242 OFFCURVE",
"1180 -8 OFFCURVE",
"1180 477 CURVE SMOOTH",
"1180 755 OFFCURVE",
"1167 970 OFFCURVE",
"1141 1123 CURVE SMOOTH",
"1088 1428 OFFCURVE",
"978 1556 OFFCURVE",
"754 1556 CURVE SMOOTH",
"689 1556 OFFCURVE",
"637 1548 OFFCURVE",
"596 1532 CURVE",
"596 1386 LINE",
"639 1400 OFFCURVE",
"684 1407 OFFCURVE",
"731 1407 CURVE SMOOTH",
"868 1407 OFFCURVE",
"938 1298 OFFCURVE",
"972 1038 CURVE SMOOTH",
"989 907 OFFCURVE",
"997 720 OFFCURVE",
"997 477 CURVE SMOOTH",
"997 84 OFFCURVE",
"876 -92 OFFCURVE",
"608 -92 CURVE SMOOTH",
"469 -92 OFFCURVE",
"377 3 OFFCURVE",
"334 193 CURVE",
"428 193 LINE SMOOTH",
"616 193 OFFCURVE",
"709 263 OFFCURVE",
"709 428 CURVE SMOOTH",
"709 719 OFFCURVE",
"597 899 OFFCURVE",
"420 899 CURVE SMOOTH",
"367 899 OFFCURVE",
"319 879 OFFCURVE",
"275 839 CURVE SMOOTH",
"187 758 OFFCURVE",
"133 605 OFFCURVE",
"133 422 CURVE SMOOTH",
"133 -11 OFFCURVE",
"297 -242 OFFCURVE",
"608 -242 CURVE SMOOTH"
);
},
{
closed = 1;
nodes = (
"315 372 LINE",
"315 410 LINE SMOOTH",
"315 517 OFFCURVE",
"324 601 OFFCURVE",
"343 661 CURVE SMOOTH",
"362 720 OFFCURVE",
"388 750 OFFCURVE",
"422 750 CURVE SMOOTH",
"456 750 OFFCURVE",
"482 722 OFFCURVE",
"500 667 CURVE SMOOTH",
"517 612 OFFCURVE",
"526 533 OFFCURVE",
"526 432 CURVE SMOOTH",
"526 368 OFFCURVE",
"495 332 OFFCURVE",
"408 332 CURVE SMOOTH",
"317 332 LINE"
);
}
);
width = 1333;
}
);
note = uni10B1F;
},
{
glyphname = uni10B20;
lastChange = "2016-11-10 14:13:37 +0000";
layers = (
{
layerId = "CE62A97F-1FFA-40F4-90CE-7C43E9FFEEC9";
paths = (
{
closed = 1;
nodes = (
"-172 -492 LINE SMOOTH",
"248 -492 OFFCURVE",
"451 -328 OFFCURVE",
"451 -31 CURVE SMOOTH",
"451 66 OFFCURVE",
"431 148 OFFCURVE",
"411 235 CURVE SMOOTH",
"391 322 OFFCURVE",
"371 415 OFFCURVE",
"371 535 CURVE SMOOTH",
"371 659 OFFCURVE",
"378 715 OFFCURVE",
"430 879 CURVE",
"256 879 LINE",
"205 728 OFFCURVE",
"188 641 OFFCURVE",
"188 541 CURVE SMOOTH",
"188 410 OFFCURVE",
"206 310 OFFCURVE",
"225 223 CURVE SMOOTH",
"244 136 OFFCURVE",
"262 63 OFFCURVE",
"262 -12 CURVE SMOOTH",
"262 -236 OFFCURVE",
"115 -342 OFFCURVE",
"-205 -342 CURVE SMOOTH",
"-1516 -342 LINE",
"-1516 -492 LINE"
);
}
);
width = 573;
}
);
note = uni10B20;
},
{
glyphname = uni10B21;
lastChange = "2016-11-10 14:13:37 +0000";
layers = (
{
layerId = "CE62A97F-1FFA-40F4-90CE-7C43E9FFEEC9";
paths = (
{
closed = 1;
nodes = (
"773 -242 OFFCURVE",
"874 -182 OFFCURVE",
"967 -29 CURVE",
"1046 -181 OFFCURVE",
"1139 -242 OFFCURVE",
"1298 -242 CURVE SMOOTH",
"1579 -242 OFFCURVE",
"1741 -76 OFFCURVE",
"1741 199 CURVE SMOOTH",
"1741 298 OFFCURVE",
"1723 372 OFFCURVE",
"1705 439 CURVE SMOOTH",
"1687 506 OFFCURVE",
"1669 564 OFFCURVE",
"1669 631 CURVE SMOOTH",
"1669 872 OFFCURVE",
"1810 997 OFFCURVE",
"2071 997 CURVE",
"1970 1130 LINE",
"1662 1109 OFFCURVE",
"1487 919 OFFCURVE",
"1487 627 CURVE SMOOTH",
"1487 554 OFFCURVE",
"1505 489 OFFCURVE",
"1523 422 CURVE SMOOTH",
"1541 354 OFFCURVE",
"1559 284 OFFCURVE",
"1559 203 CURVE SMOOTH",
"1559 18 OFFCURVE",
"1467 -92 OFFCURVE",
"1311 -92 CURVE SMOOTH",
"1155 -92 OFFCURVE",
"1077 33 OFFCURVE",
"1077 283 CURVE SMOOTH",
"1077 879 LINE",
"895 879 LINE",
"895 385 LINE SMOOTH",
"895 52 OFFCURVE",
"808 -94 OFFCURVE",
"592 -94 CURVE SMOOTH",
"453 -94 OFFCURVE",
"362 2 OFFCURVE",
"330 193 CURVE",
"428 193 LINE SMOOTH",
"616 193 OFFCURVE",
"709 263 OFFCURVE",
"709 428 CURVE SMOOTH",
"709 719 OFFCURVE",
"597 899 OFFCURVE",
"420 899 CURVE SMOOTH",
"367 899 OFFCURVE",
"319 879 OFFCURVE",
"275 839 CURVE SMOOTH",
"187 758 OFFCURVE",
"133 605 OFFCURVE",
"133 422 CURVE SMOOTH",
"133 -27 OFFCURVE",
"283 -242 OFFCURVE",
"584 -242 CURVE SMOOTH"
);
},
{
closed = 1;
nodes = (
"315 410 LINE SMOOTH",
"315 517 OFFCURVE",
"324 601 OFFCURVE",
"343 661 CURVE SMOOTH",
"362 720 OFFCURVE",
"388 750 OFFCURVE",
"422 750 CURVE SMOOTH",
"456 750 OFFCURVE",
"482 722 OFFCURVE",
"500 667 CURVE SMOOTH",
"517 612 OFFCURVE",
"526 533 OFFCURVE",
"526 432 CURVE SMOOTH",
"526 368 OFFCURVE",
"495 332 OFFCURVE",
"408 332 CURVE SMOOTH",
"315 332 LINE"
);
}
);
width = 1874;
}
);
note = uni10B21;
},
{
glyphname = uni10B22;
lastChange = "2016-11-10 14:13:37 +0000";
layers = (
{
layerId = "CE62A97F-1FFA-40F4-90CE-7C43E9FFEEC9";
paths = (
{
closed = 1;
nodes = (
"418 -443 OFFCURVE",
"530 -328 OFFCURVE",
"530 -109 CURVE SMOOTH",
"530 32 OFFCURVE",
"466 133 OFFCURVE",
"315 205 CURVE",
"470 262 OFFCURVE",
"530 366 OFFCURVE",
"530 518 CURVE SMOOTH",
"530 754 OFFCURVE",
"370 897 OFFCURVE",
"102 897 CURVE",
"102 737 LINE",
"262 737 OFFCURVE",
"342 663 OFFCURVE",
"342 516 CURVE SMOOTH",
"342 353 OFFCURVE",
"285 299 OFFCURVE",
"102 291 CURVE",
"102 131 LINE",
"262 131 OFFCURVE",
"342 52 OFFCURVE",
"342 -106 CURVE SMOOTH",
"342 -239 OFFCURVE",
"291 -306 OFFCURVE",
"123 -346 CURVE",
"182 -492 LINE"
);
}
);
width = 643;
}
);
note = uni10B22;
},
{
glyphname = uni10B23;
lastChange = "2016-11-10 14:13:37 +0000";
layers = (
{
layerId = "CE62A97F-1FFA-40F4-90CE-7C43E9FFEEC9";
paths = (
{
closed = 1;
nodes = (
"1185 -242 OFFCURVE",
"1358 -70 OFFCURVE",
"1358 229 CURVE SMOOTH",
"1358 313 OFFCURVE",
"1340 379 OFFCURVE",
"1322 442 CURVE SMOOTH",
"1304 505 OFFCURVE",
"1286 562 OFFCURVE",
"1286 629 CURVE SMOOTH",
"1286 702 OFFCURVE",
"1315 809 OFFCURVE",
"1358 877 CURVE",
"1176 877 LINE",
"1128 793 OFFCURVE",
"1104 709 OFFCURVE",
"1104 625 CURVE SMOOTH",
"1104 552 OFFCURVE",
"1122 492 OFFCURVE",
"1140 431 CURVE SMOOTH",
"1158 370 OFFCURVE",
"1176 308 OFFCURVE",
"1176 231 CURVE SMOOTH",
"1176 24 OFFCURVE",
"1073 -92 OFFCURVE",
"881 -92 CURVE SMOOTH",
"695 -92 OFFCURVE",
"602 33 OFFCURVE",
"602 283 CURVE SMOOTH",
"602 877 LINE",
"422 877 LINE",
"422 772 LINE SMOOTH",
"422 540 OFFCURVE",
"356 444 OFFCURVE",
"195 444 CURVE SMOOTH",
"20 444 LINE",
"20 315 LINE",
"78 302 OFFCURVE",
"138 295 OFFCURVE",
"199 295 CURVE SMOOTH",
"290 295 OFFCURVE",
"365 322 OFFCURVE",
"422 377 CURVE",
"422 276 LINE SMOOTH",
"422 -81 OFFCURVE",
"573 -242 OFFCURVE",
"866 -242 CURVE SMOOTH"
);
}
);
width = 1491;
}
);
note = uni10B23;
},
{
glyphname = uni10B24;
lastChange = "2016-11-10 14:13:37 +0000";
layers = (
{
layerId = "CE62A97F-1FFA-40F4-90CE-7C43E9FFEEC9";
paths = (
{
closed = 1;
nodes = (
"305 -492 LINE",
"305 -266 LINE",
"455 -208 OFFCURVE",
"530 -115 OFFCURVE",
"530 12 CURVE SMOOTH",
"530 141 OFFCURVE",
"448 217 OFFCURVE",
"315 268 CURVE",
"470 323 OFFCURVE",
"530 418 OFFCURVE",
"530 555 CURVE SMOOTH",
"530 771 OFFCURVE",
"370 899 OFFCURVE",
"102 899 CURVE",
"102 739 LINE",
"262 739 OFFCURVE",
"342 674 OFFCURVE",
"342 543 CURVE SMOOTH",
"342 396 OFFCURVE",
"282 345 OFFCURVE",
"102 340 CURVE",
"102 203 LINE",
"262 203 OFFCURVE",
"342 141 OFFCURVE",
"342 18 CURVE SMOOTH",
"342 -85 OFFCURVE",
"287 -135 OFFCURVE",
"123 -166 CURVE",
"123 -492 LINE"
);
}
);
width = 643;
}
);
note = uni10B24;
},
{
glyphname = uni10B25;
lastChange = "2016-11-10 14:13:37 +0000";
layers = (
{
layerId = "CE62A97F-1FFA-40F4-90CE-7C43E9FFEEC9";
paths = (
{
closed = 1;
nodes = (
"356 -221 LINE",
"356 877 LINE",
"174 877 LINE",
"174 -221 LINE"
);
}
);
width = 530;
}
);
note = uni10B25;
},
{
glyphname = uni10B26;
lastChange = "2016-11-10 14:13:37 +0000";
layers = (
{
layerId = "CE62A97F-1FFA-40F4-90CE-7C43E9FFEEC9";
paths = (
{
closed = 1;
nodes = (
"653 -492 LINE",
"564 -383 OFFCURVE",
"502 -286 OFFCURVE",
"466 -203 CURVE SMOOTH",
"393 -36 OFFCURVE",
"367 155 OFFCURVE",
"367 563 CURVE SMOOTH",
"367 734 OFFCURVE",
"357 879 OFFCURVE",
"338 998 CURVE SMOOTH",
"298 1236 OFFCURVE",
"223 1397 OFFCURVE",
"68 1556 CURVE",
"-102 1556 LINE",
"-19 1457 OFFCURVE",
"42 1369 OFFCURVE",
"81 1292 CURVE SMOOTH",
"157 1136 OFFCURVE",
"184 958 OFFCURVE",
"184 561 CURVE SMOOTH",
"184 370 OFFCURVE",
"193 212 OFFCURVE",
"212 85 CURVE SMOOTH",
"249 -169 OFFCURVE",
"328 -341 OFFCURVE",
"485 -492 CURVE"
);
}
);
width = 551;
}
);
note = uni10B26;
},
{
glyphname = uni10B27;
lastChange = "2016-11-10 14:13:37 +0000";
layers = (
{
layerId = "CE62A97F-1FFA-40F4-90CE-7C43E9FFEEC9";
paths = (
{
closed = 1;
nodes = (
"879 -492 LINE",
"743 -328 OFFCURVE",
"668 -176 OFFCURVE",
"627 0 CURVE",
"1286 0 LINE",
"1286 160 LINE",
"608 160 LINE",
"597 243 OFFCURVE",
"592 334 OFFCURVE",
"592 434 CURVE",
"654 389 OFFCURVE",
"737 367 OFFCURVE",
"842 367 CURVE SMOOTH",
"893 367 OFFCURVE",
"937 371 OFFCURVE",
"972 378 CURVE SMOOTH",
"1042 393 OFFCURVE",
"1082 418 OFFCURVE",
"1130 487 CURVE",
"1194 408 OFFCURVE",
"1311 367 OFFCURVE",
"1442 367 CURVE SMOOTH",
"1535 367 OFFCURVE",
"1610 377 OFFCURVE",
"1667 397 CURVE SMOOTH",
"1780 437 OFFCURVE",
"1831 510 OFFCURVE",
"1831 662 CURVE SMOOTH",
"1831 713 OFFCURVE",
"1817 785 OFFCURVE",
"1790 879 CURVE",
"1647 879 LINE",
"1647 694 LINE SMOOTH",
"1647 645 OFFCURVE",
"1641 609 OFFCURVE",
"1628 588 CURVE",
"1603 544 OFFCURVE",
"1551 526 OFFCURVE",
"1436 526 CURVE SMOOTH",
"1292 526 OFFCURVE",
"1219 580 OFFCURVE",
"1219 680 CURVE SMOOTH",
"1219 737 OFFCURVE",
"1201 828 OFFCURVE",
"1178 879 CURVE",
"1034 879 LINE",
"1034 694 LINE SMOOTH",
"1034 643 OFFCURVE",
"1027 606 OFFCURVE",
"1014 583 CURVE SMOOTH",
"987 536 OFFCURVE",
"932 516 OFFCURVE",
"823 516 CURVE SMOOTH",
"655 516 OFFCURVE",
"592 603 OFFCURVE",
"592 866 CURVE SMOOTH",
"592 879 LINE",
"410 879 LINE",
"410 561 LINE SMOOTH",
"410 376 OFFCURVE",
"415 242 OFFCURVE",
"424 160 CURVE",
"76 160 LINE",
"76 -205 LINE",
"258 -205 LINE",
"258 0 LINE",
"440 0 LINE",
"481 -195 OFFCURVE",
"572 -359 OFFCURVE",
"711 -492 CURVE"
);
}
);
width = 1958;
}
);
note = uni10B27;
},
{
glyphname = uni10B28;
lastChange = "2016-11-10 14:13:37 +0000";
layers = (
{
layerId = "CE62A97F-1FFA-40F4-90CE-7C43E9FFEEC9";
paths = (
{
closed = 1;
nodes = (
"567 172 OFFCURVE",
"621 193 OFFCURVE",
"673 236 CURVE SMOOTH",
"777 320 OFFCURVE",
"852 486 OFFCURVE",
"852 625 CURVE SMOOTH",
"852 793 OFFCURVE",
"744 879 OFFCURVE",
"549 879 CURVE SMOOTH",
"356 879 LINE",
"356 1198 OFFCURVE",
"466 1407 OFFCURVE",
"623 1407 CURVE SMOOTH",
"670 1407 OFFCURVE",
"715 1400 OFFCURVE",
"758 1386 CURVE",
"758 1532 LINE",
"717 1548 OFFCURVE",
"665 1556 OFFCURVE",
"600 1556 CURVE SMOOTH",
"340 1556 OFFCURVE",
"191 1295 OFFCURVE",
"176 879 CURVE",
"41 879 LINE",
"41 739 LINE",
"174 739 LINE",
"178 624 OFFCURVE",
"195 525 OFFCURVE",
"224 440 CURVE SMOOTH",
"283 270 OFFCURVE",
"388 172 OFFCURVE",
"512 172 CURVE SMOOTH"
);
},
{
closed = 1;
nodes = (
"487 322 OFFCURVE",
"461 341 OFFCURVE",
"436 378 CURVE SMOOTH",
"387 453 OFFCURVE",
"356 591 OFFCURVE",
"356 739 CURVE",
"541 739 LINE SMOOTH",
"618 739 OFFCURVE",
"670 686 OFFCURVE",
"670 621 CURVE SMOOTH",
"670 473 OFFCURVE",
"589 322 OFFCURVE",
"514 322 CURVE SMOOTH"
);
}
);
width = 954;
}
);
note = uni10B28;
},
{
glyphname = uni10B29;
lastChange = "2016-11-10 14:13:37 +0000";
layers = (
{
layerId = "CE62A97F-1FFA-40F4-90CE-7C43E9FFEEC9";
paths = (
{
closed = 1;
nodes = (
"690 -121 LINE",
"602 -96 OFFCURVE",
"539 -9 OFFCURVE",
"539 84 CURVE SMOOTH",
"539 121 OFFCURVE",
"561 162 OFFCURVE",
"582 182 CURVE",
"630 199 OFFCURVE",
"675 231 OFFCURVE",
"717 278 CURVE SMOOTH",
"800 373 OFFCURVE",
"852 510 OFFCURVE",
"852 625 CURVE SMOOTH",
"852 793 OFFCURVE",
"744 879 OFFCURVE",
"549 879 CURVE SMOOTH",
"356 879 LINE",
"356 1198 OFFCURVE",
"466 1407 OFFCURVE",
"623 1407 CURVE SMOOTH",
"670 1407 OFFCURVE",
"715 1400 OFFCURVE",
"758 1386 CURVE",
"758 1532 LINE",
"717 1548 OFFCURVE",
"665 1556 OFFCURVE",
"600 1556 CURVE SMOOTH",
"340 1556 OFFCURVE",
"191 1295 OFFCURVE",
"176 879 CURVE",
"41 879 LINE",
"41 739 LINE",
"174 739 LINE",
"183 458 OFFCURVE",
"273 257 OFFCURVE",
"418 190 CURVE",
"397 157 OFFCURVE",
"387 118 OFFCURVE",
"387 74 CURVE SMOOTH",
"387 -93 OFFCURVE",
"484 -206 OFFCURVE",
"639 -233 CURVE"
);
},
{
closed = 1;
nodes = (
"487 322 OFFCURVE",
"461 341 OFFCURVE",
"436 378 CURVE SMOOTH",
"387 453 OFFCURVE",
"356 591 OFFCURVE",
"356 739 CURVE",
"541 739 LINE SMOOTH",
"618 739 OFFCURVE",
"670 686 OFFCURVE",
"670 621 CURVE SMOOTH",
"670 473 OFFCURVE",
"589 322 OFFCURVE",
"514 322 CURVE SMOOTH"
);
}
);
width = 954;
}
);
note = uni10B29;
},
{
glyphname = uni10B2A;
lastChange = "2016-11-10 14:13:37 +0000";
layers = (
{
layerId = "CE62A97F-1FFA-40F4-90CE-7C43E9FFEEC9";
paths = (
{
closed = 1;
nodes = (
"1470 -119 LINE",
"1412 -79 OFFCURVE",
"1345 -59 OFFCURVE",
"1270 -59 CURVE SMOOTH",
"1228 -59 OFFCURVE",
"1171 -64 OFFCURVE",
"1100 -75 CURVE SMOOTH",
"1029 -86 OFFCURVE",
"963 -92 OFFCURVE",
"903 -92 CURVE SMOOTH",
"682 -92 OFFCURVE",
"559 59 OFFCURVE",
"559 315 CURVE SMOOTH",
"559 608 OFFCURVE",
"744 748 OFFCURVE",
"1112 748 CURVE SMOOTH",
"1248 748 OFFCURVE",
"1368 724 OFFCURVE",
"1511 664 CURVE",
"1575 811 LINE",
"1432 868 OFFCURVE",
"1277 897 OFFCURVE",
"1112 897 CURVE SMOOTH",
"680 897 OFFCURVE",
"410 709 OFFCURVE",
"375 385 CURVE",
"336 402 OFFCURVE",
"295 410 OFFCURVE",
"254 410 CURVE SMOOTH",
"103 410 OFFCURVE",
"20 328 OFFCURVE",
"20 199 CURVE SMOOTH",
"20 148 OFFCURVE",
"30 102 OFFCURVE",
"51 63 CURVE",
"172 94 LINE",
"155 129 OFFCURVE",
"147 164 OFFCURVE",
"147 197 CURVE SMOOTH",
"147 257 OFFCURVE",
"180 303 OFFCURVE",
"264 303 CURVE SMOOTH",
"303 303 OFFCURVE",
"339 293 OFFCURVE",
"373 272 CURVE",
"389 -51 OFFCURVE",
"587 -242 OFFCURVE",
"907 -242 CURVE SMOOTH",
"962 -242 OFFCURVE",
"1027 -237 OFFCURVE",
"1102 -226 CURVE SMOOTH",
"1176 -216 OFFCURVE",
"1229 -211 OFFCURVE",
"1260 -211 CURVE SMOOTH",
"1347 -211 OFFCURVE",
"1417 -235 OFFCURVE",
"1470 -283 CURVE"
);
}
);
width = 1636;
}
);
note = uni10B2A;
},
{
glyphname = uni10B2B;
lastChange = "2016-11-10 14:13:37 +0000";
layers = (
{
layerId = "CE62A97F-1FFA-40F4-90CE-7C43E9FFEEC9";
paths = (
{
closed = 1;
nodes = (
"154 -492 LINE",
"294 -293 OFFCURVE",
"356 -47 OFFCURVE",
"356 317 CURVE SMOOTH",
"356 378 OFFCURVE",
"351 460 OFFCURVE",
"340 561 CURVE",
"373 488 OFFCURVE",
"427 451 OFFCURVE",
"504 451 CURVE SMOOTH",
"629 451 OFFCURVE",
"686 504 OFFCURVE",
"715 608 CURVE",
"750 503 OFFCURVE",
"819 451 OFFCURVE",
"922 451 CURVE SMOOTH",
"977 451 OFFCURVE",
"1022 467 OFFCURVE",
"1059 500 CURVE",
"1057 442 LINE",
"1057 379 LINE SMOOTH",
"1057 -45 OFFCURVE",
"1211 -240 OFFCURVE",
"1530 -240 CURVE SMOOTH",
"1847 -240 OFFCURVE",
"2003 -45 OFFCURVE",
"2003 379 CURVE SMOOTH",
"2003 544 OFFCURVE",
"1989 680 OFFCURVE",
"1937 879 CURVE",
"1757 879 LINE",
"1806 672 OFFCURVE",
"1821 558 OFFCURVE",
"1821 387 CURVE SMOOTH",
"1821 59 OFFCURVE",
"1723 -92 OFFCURVE",
"1530 -92 CURVE SMOOTH",
"1335 -92 OFFCURVE",
"1239 59 OFFCURVE",
"1239 387 CURVE SMOOTH",
"1239 559 OFFCURVE",
"1254 675 OFFCURVE",
"1303 879 CURVE",
"1122 879 LINE",
"1099 788 OFFCURVE",
"1080 726 OFFCURVE",
"1065 695 CURVE SMOOTH",
"1035 632 OFFCURVE",
"1000 610 OFFCURVE",
"928 610 CURVE SMOOTH",
"847 610 OFFCURVE",
"801 654 OFFCURVE",
"801 727 CURVE SMOOTH",
"801 772 OFFCURVE",
"781 843 OFFCURVE",
"760 879 CURVE",
"618 879 LINE",
"618 766 LINE SMOOTH",
"618 650 OFFCURVE",
"581 600 OFFCURVE",
"485 600 CURVE SMOOTH",
"390 600 OFFCURVE",
"358 640 OFFCURVE",
"358 743 CURVE SMOOTH",
"358 782 OFFCURVE",
"342 842 OFFCURVE",
"317 879 CURVE",
"174 879 LINE",
"174 362 LINE SMOOTH",
"174 230 OFFCURVE",
"169 118 OFFCURVE",
"159 26 CURVE SMOOTH",
"138 -158 OFFCURVE",
"95 -287 OFFCURVE",
"-14 -492 CURVE"
);
}
);
width = 2146;
}
);
note = uni10B2B;
},
{
glyphname = uni10B2C;
lastChange = "2016-11-10 14:13:37 +0000";
layers = (
{
layerId = "CE62A97F-1FFA-40F4-90CE-7C43E9FFEEC9";
paths = (
{
closed = 1;
nodes = (
"653 -299 LINE",
"653 160 LINE",
"925 195 OFFCURVE",
"1065 383 OFFCURVE",
"1065 715 CURVE SMOOTH",
"1065 888 OFFCURVE",
"1052 1015 OFFCURVE",
"979 1270 CURVE",
"799 1270 LINE",
"829 1150 LINE SMOOTH",
"865 1009 OFFCURVE",
"883 866 OFFCURVE",
"883 719 CURVE SMOOTH",
"883 451 OFFCURVE",
"774 299 OFFCURVE",
"557 299 CURVE SMOOTH",
"382 299 OFFCURVE",
"295 421 OFFCURVE",
"295 664 CURVE SMOOTH",
"295 760 OFFCURVE",
"312 844 OFFCURVE",
"368 996 CURVE SMOOTH",
"423 1148 OFFCURVE",
"440 1231 OFFCURVE",
"440 1327 CURVE SMOOTH",
"440 1392 OFFCURVE",
"422 1477 OFFCURVE",
"403 1516 CURVE",
"238 1516 LINE",
"246 1489 LINE",
"262 1446 OFFCURVE",
"270 1393 OFFCURVE",
"270 1331 CURVE SMOOTH",
"270 1248 OFFCURVE",
"248 1168 OFFCURVE",
"192 1029 CURVE SMOOTH",
"139 900 OFFCURVE",
"113 781 OFFCURVE",
"113 674 CURVE SMOOTH",
"113 354 OFFCURVE",
"227 186 OFFCURVE",
"471 158 CURVE",
"471 -299 LINE"
);
}
);
width = 1208;
}
);
note = uni10B2C;
},
{
glyphname = uni10B2D;
lastChange = "2016-11-10 14:13:37 +0000";
layers = (
{
layerId = "CE62A97F-1FFA-40F4-90CE-7C43E9FFEEC9";
paths = (
{
closed = 1;
nodes = (
"532 193 LINE",
"532 231 LINE SMOOTH",
"532 575 OFFCURVE",
"519 841 OFFCURVE",
"492 1030 CURVE SMOOTH",
"439 1406 OFFCURVE",
"330 1556 OFFCURVE",
"106 1556 CURVE SMOOTH",
"42 1556 OFFCURVE",
"-10 1548 OFFCURVE",
"-51 1532 CURVE",
"-51 1386 LINE",
"-8 1400 OFFCURVE",
"37 1407 OFFCURVE",
"84 1407 CURVE SMOOTH",
"153 1407 OFFCURVE",
"206 1370 OFFCURVE",
"243 1297 CURVE SMOOTH",
"280 1224 OFFCURVE",
"308 1105 OFFCURVE",
"325 941 CURVE SMOOTH",
"342 776 OFFCURVE",
"350 540 OFFCURVE",
"350 231 CURVE SMOOTH",
"350 193 LINE"
);
}
);
width = 696;
}
);
note = uni10B2D;
},
{
glyphname = uni10B2E;
lastChange = "2016-11-10 14:13:37 +0000";
layers = (
{
layerId = "CE62A97F-1FFA-40F4-90CE-7C43E9FFEEC9";
paths = (
{
closed = 1;
nodes = (
"414 -492 OFFCURVE",
"573 -272 OFFCURVE",
"573 211 CURVE SMOOTH",
"573 281 OFFCURVE",
"572 349 OFFCURVE",
"569 416 CURVE",
"619 383 OFFCURVE",
"675 367 OFFCURVE",
"737 367 CURVE SMOOTH",
"957 367 OFFCURVE",
"1094 506 OFFCURVE",
"1094 723 CURVE SMOOTH",
"1094 960 OFFCURVE",
"951 1118 OFFCURVE",
"735 1118 CURVE SMOOTH",
"640 1118 OFFCURVE",
"563 1085 OFFCURVE",
"504 1018 CURVE",
"452 1398 OFFCURVE",
"335 1556 OFFCURVE",
"106 1556 CURVE SMOOTH",
"42 1556 OFFCURVE",
"-10 1548 OFFCURVE",
"-51 1532 CURVE",
"-51 1386 LINE",
"-8 1400 OFFCURVE",
"37 1407 OFFCURVE",
"84 1407 CURVE SMOOTH",
"193 1407 OFFCURVE",
"266 1319 OFFCURVE",
"305 1143 CURVE SMOOTH",
"358 900 OFFCURVE",
"391 564 OFFCURVE",
"391 211 CURVE SMOOTH",
"391 79 OFFCURVE",
"379 -27 OFFCURVE",
"355 -107 CURVE SMOOTH",
"306 -268 OFFCURVE",
"212 -342 OFFCURVE",
"33 -342 CURVE",
"33 -492 LINE"
);
},
{
closed = 1;
nodes = (
"624 516 OFFCURVE",
"547 621 OFFCURVE",
"547 766 CURVE SMOOTH",
"547 898 OFFCURVE",
"619 969 OFFCURVE",
"735 969 CURVE SMOOTH",
"844 969 OFFCURVE",
"922 868 OFFCURVE",
"922 731 CURVE SMOOTH",
"922 594 OFFCURVE",
"854 516 OFFCURVE",
"737 516 CURVE SMOOTH"
);
}
);
width = 1186;
}
);
note = uni10B2E;
},
{
glyphname = uni10B2F;
lastChange = "2016-11-10 14:13:37 +0000";
layers = (
{
layerId = "CE62A97F-1FFA-40F4-90CE-7C43E9FFEEC9";
paths = (
{
closed = 1;
nodes = (
"571 -221 LINE SMOOTH",
"958 -221 OFFCURVE",
"1124 -52 OFFCURVE",
"1124 324 CURVE SMOOTH",
"1124 540 OFFCURVE",
"1064 706 OFFCURVE",
"909 877 CURVE",
"729 877 LINE",
"890 682 OFFCURVE",
"942 529 OFFCURVE",
"942 324 CURVE SMOOTH",
"942 40 OFFCURVE",
"825 -82 OFFCURVE",
"569 -82 CURVE SMOOTH",
"291 -82 LINE",
"412 54 OFFCURVE",
"473 209 OFFCURVE",
"473 383 CURVE SMOOTH",
"473 488 OFFCURVE",
"460 580 OFFCURVE",
"433 657 CURVE SMOOTH",
"380 812 OFFCURVE",
"278 897 OFFCURVE",
"154 897 CURVE SMOOTH",
"105 897 OFFCURVE",
"60 888 OFFCURVE",
"20 870 CURVE",
"59 727 LINE",
"82 738 OFFCURVE",
"106 743 OFFCURVE",
"133 743 CURVE SMOOTH",
"163 743 OFFCURVE",
"190 728 OFFCURVE",
"214 697 CURVE SMOOTH",
"262 636 OFFCURVE",
"291 517 OFFCURVE",
"291 365 CURVE SMOOTH",
"291 169 OFFCURVE",
"240 25 OFFCURVE",
"123 -82 CURVE",
"59 -82 LINE",
"59 -221 LINE"
);
}
);
width = 1237;
}
);
note = uni10B2F;
},
{
glyphname = uni10B30;
lastChange = "2016-11-10 14:13:37 +0000";
layers = (
{
layerId = "CE62A97F-1FFA-40F4-90CE-7C43E9FFEEC9";
paths = (
{
closed = 1;
nodes = (
"66 -492 LINE",
"145 -416 OFFCURVE",
"205 -332 OFFCURVE",
"248 -241 CURVE SMOOTH",
"332 -58 OFFCURVE",
"367 185 OFFCURVE",
"367 561 CURVE SMOOTH",
"367 764 OFFCURVE",
"375 918 OFFCURVE",
"391 1023 CURVE SMOOTH",
"423 1234 OFFCURVE",
"496 1372 OFFCURVE",
"653 1556 CURVE",
"483 1556 LINE",
"406 1477 OFFCURVE",
"347 1394 OFFCURVE",
"306 1307 CURVE SMOOTH",
"222 1132 OFFCURVE",
"184 904 OFFCURVE",
"184 563 CURVE SMOOTH",
"184 354 OFFCURVE",
"176 195 OFFCURVE",
"161 84 CURVE SMOOTH",
"130 -137 OFFCURVE",
"74 -277 OFFCURVE",
"-102 -492 CURVE"
);
}
);
width = 551;
}
);
note = uni10B30;
},
{
glyphname = uni10B31;
lastChange = "2016-11-10 14:13:37 +0000";
layers = (
{
layerId = "CE62A97F-1FFA-40F4-90CE-7C43E9FFEEC9";
paths = (
{
closed = 1;
nodes = (
"1587 -242 OFFCURVE",
"1743 -47 OFFCURVE",
"1743 377 CURVE SMOOTH",
"1743 542 OFFCURVE",
"1729 678 OFFCURVE",
"1677 877 CURVE",
"1497 877 LINE",
"1546 670 OFFCURVE",
"1561 556 OFFCURVE",
"1561 385 CURVE SMOOTH",
"1561 57 OFFCURVE",
"1463 -94 OFFCURVE",
"1270 -94 CURVE SMOOTH",
"1075 -94 OFFCURVE",
"979 57 OFFCURVE",
"979 385 CURVE SMOOTH",
"979 553 OFFCURVE",
"993 670 OFFCURVE",
"1042 877 CURVE",
"862 877 LINE",
"839 786 OFFCURVE",
"820 724 OFFCURVE",
"805 693 CURVE SMOOTH",
"775 630 OFFCURVE",
"740 608 OFFCURVE",
"668 608 CURVE SMOOTH",
"587 608 OFFCURVE",
"541 652 OFFCURVE",
"541 725 CURVE SMOOTH",
"541 770 OFFCURVE",
"521 841 OFFCURVE",
"500 877 CURVE",
"358 877 LINE",
"358 764 LINE SMOOTH",
"358 648 OFFCURVE",
"320 598 OFFCURVE",
"225 598 CURVE SMOOTH",
"41 598 LINE",
"41 469 LINE",
"102 456 OFFCURVE",
"170 449 OFFCURVE",
"244 449 CURVE SMOOTH",
"369 449 OFFCURVE",
"426 502 OFFCURVE",
"455 606 CURVE",
"490 501 OFFCURVE",
"559 449 OFFCURVE",
"662 449 CURVE SMOOTH",
"717 449 OFFCURVE",
"762 465 OFFCURVE",
"799 498 CURVE",
"797 440 LINE",
"797 377 LINE SMOOTH",
"797 -47 OFFCURVE",
"951 -242 OFFCURVE",
"1270 -242 CURVE SMOOTH"
);
}
);
width = 1886;
}
);
note = uni10B31;
},
{
glyphname = uni10B32;
lastChange = "2016-11-10 14:13:37 +0000";
layers = (
{
layerId = "CE62A97F-1FFA-40F4-90CE-7C43E9FFEEC9";
paths = (
{
closed = 1;
nodes = (
"820 -242 OFFCURVE",
"941 -178 OFFCURVE",
"1022 -25 CURVE",
"1071 -166 OFFCURVE",
"1195 -242 OFFCURVE",
"1372 -242 CURVE SMOOTH",
"1647 -242 OFFCURVE",
"1788 -49 OFFCURVE",
"1788 322 CURVE SMOOTH",
"1788 527 OFFCURVE",
"1746 712 OFFCURVE",
"1661 877 CURVE",
"1481 877 LINE",
"1578 644 OFFCURVE",
"1606 500 OFFCURVE",
"1606 313 CURVE SMOOTH",
"1606 42 OFFCURVE",
"1524 -94 OFFCURVE",
"1360 -94 CURVE SMOOTH",
"1201 -94 OFFCURVE",
"1122 18 OFFCURVE",
"1122 242 CURVE SMOOTH",
"1122 877 LINE",
"940 877 LINE",
"940 244 LINE SMOOTH",
"940 27 OFFCURVE",
"829 -94 OFFCURVE",
"608 -94 CURVE SMOOTH",
"469 -94 OFFCURVE",
"377 2 OFFCURVE",
"334 193 CURVE",
"428 193 LINE SMOOTH",
"616 193 OFFCURVE",
"709 263 OFFCURVE",
"709 428 CURVE SMOOTH",
"709 719 OFFCURVE",
"597 899 OFFCURVE",
"420 899 CURVE SMOOTH",
"367 899 OFFCURVE",
"319 879 OFFCURVE",
"275 839 CURVE SMOOTH",
"187 758 OFFCURVE",
"133 605 OFFCURVE",
"133 422 CURVE SMOOTH",
"133 -11 OFFCURVE",
"297 -242 OFFCURVE",
"608 -242 CURVE SMOOTH"
);
},
{
closed = 1;
nodes = (
"315 372 LINE",
"315 410 LINE SMOOTH",
"315 517 OFFCURVE",
"324 601 OFFCURVE",
"343 661 CURVE SMOOTH",
"362 720 OFFCURVE",
"388 750 OFFCURVE",
"422 750 CURVE SMOOTH",
"456 750 OFFCURVE",
"482 722 OFFCURVE",
"500 667 CURVE SMOOTH",
"517 612 OFFCURVE",
"526 533 OFFCURVE",
"526 432 CURVE SMOOTH",
"526 368 OFFCURVE",
"495 332 OFFCURVE",
"408 332 CURVE SMOOTH",
"317 332 LINE"
);
}
);
width = 1931;
}
);
note = uni10B32;
},
{
glyphname = uni10B33;
lastChange = "2016-11-10 14:13:37 +0000";
layers = (
{
layerId = "CE62A97F-1FFA-40F4-90CE-7C43E9FFEEC9";
paths = (
{
closed = 1;
nodes = (
"2027 -240 OFFCURVE",
"2183 -45 OFFCURVE",
"2183 379 CURVE SMOOTH",
"2183 571 OFFCURVE",
"2165 703 OFFCURVE",
"2118 879 CURVE",
"1937 879 LINE",
"1986 672 OFFCURVE",
"2001 558 OFFCURVE",
"2001 387 CURVE SMOOTH",
"2001 59 OFFCURVE",
"1905 -92 OFFCURVE",
"1710 -92 CURVE SMOOTH",
"1515 -92 OFFCURVE",
"1419 59 OFFCURVE",
"1419 387 CURVE SMOOTH",
"1419 559 OFFCURVE",
"1434 675 OFFCURVE",
"1483 879 CURVE",
"1303 879 LINE",
"1295 852 OFFCURVE",
"1290 831 OFFCURVE",
"1288 817 CURVE SMOOTH",
"1267 696 OFFCURVE",
"1242 616 OFFCURVE",
"1215 577 CURVE SMOOTH",
"1188 538 OFFCURVE",
"1145 518 OFFCURVE",
"1087 518 CURVE SMOOTH",
"1016 518 OFFCURVE",
"981 571 OFFCURVE",
"981 676 CURVE SMOOTH",
"981 729 OFFCURVE",
"968 815 OFFCURVE",
"940 879 CURVE",
"799 879 LINE",
"799 729 LINE SMOOTH",
"799 554 OFFCURVE",
"750 501 OFFCURVE",
"602 498 CURVE",
"597 759 OFFCURVE",
"495 899 OFFCURVE",
"322 899 CURVE SMOOTH",
"171 899 OFFCURVE",
"74 800 OFFCURVE",
"74 655 CURVE SMOOTH",
"74 502 OFFCURVE",
"201 398 OFFCURVE",
"420 367 CURVE",
"400 193 OFFCURVE",
"330 -2 OFFCURVE",
"211 -219 CURVE",
"383 -219 LINE",
"504 -26 OFFCURVE",
"575 167 OFFCURVE",
"596 358 CURVE",
"765 365 OFFCURVE",
"857 415 OFFCURVE",
"885 516 CURVE",
"913 401 OFFCURVE",
"984 358 OFFCURVE",
"1067 358 CURVE SMOOTH",
"1155 358 OFFCURVE",
"1204 383 OFFCURVE",
"1241 459 CURVE",
"1237 379 LINE",
"1237 -45 OFFCURVE",
"1393 -240 OFFCURVE",
"1710 -240 CURVE SMOOTH"
);
},
{
closed = 1;
nodes = (
"306 527 OFFCURVE",
"246 578 OFFCURVE",
"246 659 CURVE SMOOTH",
"246 726 OFFCURVE",
"281 750 OFFCURVE",
"322 750 CURVE SMOOTH",
"351 750 OFFCURVE",
"376 729 OFFCURVE",
"395 687 CURVE SMOOTH",
"414 645 OFFCURVE",
"424 585 OFFCURVE",
"426 508 CURVE"
);
}
);
width = 2327;
}
);
note = uni10B33;
},
{
glyphname = uni10B34;
lastChange = "2016-11-10 14:13:37 +0000";
layers = (
{
layerId = "CE62A97F-1FFA-40F4-90CE-7C43E9FFEEC9";
paths = (
{
closed = 1;
nodes = (
"1252 -492 OFFCURVE",
"1502 -465 OFFCURVE",
"1741 -412 CURVE",
"1741 -254 LINE",
"1504 -311 OFFCURVE",
"1256 -340 OFFCURVE",
"995 -340 CURVE SMOOTH",
"703 -340 OFFCURVE",
"509 -259 OFFCURVE",
"406 -82 CURVE",
"944 -12 LINE",
"924 137 LINE",
"350 59 LINE",
"334 125 OFFCURVE",
"326 198 OFFCURVE",
"326 279 CURVE SMOOTH",
"326 362 LINE",
"328 442 LINE",
"375 386 OFFCURVE",
"434 358 OFFCURVE",
"504 358 CURVE SMOOTH",
"651 358 OFFCURVE",
"731 401 OFFCURVE",
"762 516 CURVE",
"786 419 OFFCURVE",
"864 358 OFFCURVE",
"965 358 CURVE SMOOTH",
"1053 358 OFFCURVE",
"1102 383 OFFCURVE",
"1139 459 CURVE",
"1135 379 LINE",
"1135 44 OFFCURVE",
"1289 -109 OFFCURVE",
"1608 -109 CURVE SMOOTH",
"1925 -109 OFFCURVE",
"2081 44 OFFCURVE",
"2081 379 CURVE SMOOTH",
"2081 544 OFFCURVE",
"2067 680 OFFCURVE",
"2015 879 CURVE",
"1835 879 LINE",
"1886 670 OFFCURVE",
"1898 551 OFFCURVE",
"1898 387 CURVE SMOOTH",
"1898 148 OFFCURVE",
"1803 39 OFFCURVE",
"1608 39 CURVE SMOOTH",
"1412 39 OFFCURVE",
"1317 148 OFFCURVE",
"1317 387 CURVE SMOOTH",
"1317 555 OFFCURVE",
"1331 672 OFFCURVE",
"1380 879 CURVE",
"1200 879 LINE",
"1186 817 LINE",
"1165 696 OFFCURVE",
"1140 616 OFFCURVE",
"1113 577 CURVE SMOOTH",
"1086 538 OFFCURVE",
"1043 518 OFFCURVE",
"985 518 CURVE SMOOTH",
"908 518 OFFCURVE",
"858 580 OFFCURVE",
"858 676 CURVE SMOOTH",
"858 729 OFFCURVE",
"845 815 OFFCURVE",
"817 879 CURVE",
"676 879 LINE",
"676 729 LINE SMOOTH",
"676 562 OFFCURVE",
"636 518 OFFCURVE",
"508 518 CURVE SMOOTH",
"405 518 OFFCURVE",
"367 568 OFFCURVE",
"367 676 CURVE SMOOTH",
"367 735 OFFCURVE",
"377 803 OFFCURVE",
"397 879 CURVE",
"225 879 LINE",
"170 682 OFFCURVE",
"143 473 OFFCURVE",
"143 252 CURVE SMOOTH",
"143 -255 OFFCURVE",
"418 -492 OFFCURVE",
"989 -492 CURVE SMOOTH"
);
}
);
width = 2224;
}
);
note = uni10B34;
},
{
glyphname = uni10B35;
lastChange = "2016-11-10 14:13:37 +0000";
layers = (
{
layerId = "CE62A97F-1FFA-40F4-90CE-7C43E9FFEEC9";
paths = (
{
closed = 1;
nodes = (
"977 -242 OFFCURVE",
"1139 -61 OFFCURVE",
"1139 379 CURVE SMOOTH",
"1139 410 LINE",
"1175 381 OFFCURVE",
"1219 367 OFFCURVE",
"1272 367 CURVE SMOOTH",
"1485 367 OFFCURVE",
"1591 473 OFFCURVE",
"1591 662 CURVE SMOOTH",
"1591 715 OFFCURVE",
"1574 807 OFFCURVE",
"1550 879 CURVE",
"1409 879 LINE",
"1409 694 LINE SMOOTH",
"1409 574 OFFCURVE",
"1368 516 OFFCURVE",
"1272 516 CURVE SMOOTH",
"1193 516 OFFCURVE",
"1139 583 OFFCURVE",
"1139 682 CURVE SMOOTH",
"1139 737 OFFCURVE",
"1121 828 OFFCURVE",
"1098 879 CURVE",
"956 879 LINE",
"956 387 LINE SMOOTH",
"956 46 OFFCURVE",
"859 -94 OFFCURVE",
"608 -94 CURVE SMOOTH",
"469 -94 OFFCURVE",
"377 2 OFFCURVE",
"334 193 CURVE",
"428 193 LINE SMOOTH",
"616 193 OFFCURVE",
"709 263 OFFCURVE",
"709 428 CURVE SMOOTH",
"709 719 OFFCURVE",
"597 899 OFFCURVE",
"420 899 CURVE SMOOTH",
"367 899 OFFCURVE",
"319 879 OFFCURVE",
"275 839 CURVE SMOOTH",
"187 758 OFFCURVE",
"133 605 OFFCURVE",
"133 422 CURVE SMOOTH",
"133 -11 OFFCURVE",
"297 -242 OFFCURVE",
"608 -242 CURVE SMOOTH"
);
},
{
closed = 1;
nodes = (
"315 372 LINE",
"315 410 LINE SMOOTH",
"315 517 OFFCURVE",
"324 601 OFFCURVE",
"343 661 CURVE SMOOTH",
"362 720 OFFCURVE",
"388 750 OFFCURVE",
"422 750 CURVE SMOOTH",
"456 750 OFFCURVE",
"482 722 OFFCURVE",
"500 667 CURVE SMOOTH",
"517 612 OFFCURVE",
"526 533 OFFCURVE",
"526 432 CURVE SMOOTH",
"526 368 OFFCURVE",
"495 332 OFFCURVE",
"408 332 CURVE SMOOTH",
"317 332 LINE"
);
}
);
width = 1683;
}
);
note = uni10B35;
},
{
glyphname = uni10B39;
lastChange = "2016-11-10 14:13:37 +0000";
layers = (
{
layerId = "CE62A97F-1FFA-40F4-90CE-7C43E9FFEEC9";
paths = (
{
closed = 1;
nodes = (
"713 485 OFFCURVE",
"795 561 OFFCURVE",
"795 684 CURVE SMOOTH",
"795 799 OFFCURVE",
"713 877 OFFCURVE",
"588 877 CURVE SMOOTH",
"464 877 OFFCURVE",
"385 803 OFFCURVE",
"385 682 CURVE SMOOTH",
"385 559 OFFCURVE",
"463 485 OFFCURVE",
"588 485 CURVE SMOOTH"
);
},
{
closed = 1;
nodes = (
"501 547 OFFCURVE",
"453 598 OFFCURVE",
"453 682 CURVE SMOOTH",
"453 766 OFFCURVE",
"509 817 OFFCURVE",
"588 817 CURVE SMOOTH",
"667 817 OFFCURVE",
"723 766 OFFCURVE",
"723 682 CURVE SMOOTH",
"723 598 OFFCURVE",
"668 547 OFFCURVE",
"588 547 CURVE SMOOTH"
);
}
);
width = 1182;
}
);
note = uni10B39;
},
{
glyphname = uni10B3A;
lastChange = "2016-11-10 14:13:37 +0000";
layers = (
{
layerId = "CE62A97F-1FFA-40F4-90CE-7C43E9FFEEC9";
paths = (
{
closed = 1;
nodes = (
"891 588 OFFCURVE",
"932 625 OFFCURVE",
"932 686 CURVE SMOOTH",
"932 749 OFFCURVE",
"891 784 OFFCURVE",
"831 784 CURVE SMOOTH",
"771 784 OFFCURVE",
"727 748 OFFCURVE",
"727 684 CURVE SMOOTH",
"727 624 OFFCURVE",
"771 588 OFFCURVE",
"831 588 CURVE SMOOTH"
);
},
{
closed = 1;
nodes = (
"584 82 OFFCURVE",
"625 117 OFFCURVE",
"625 178 CURVE SMOOTH",
"625 242 OFFCURVE",
"584 276 OFFCURVE",
"524 276 CURVE SMOOTH",
"464 276 OFFCURVE",
"420 242 OFFCURVE",
"420 178 CURVE SMOOTH",
"420 117 OFFCURVE",
"464 82 OFFCURVE",
"524 82 CURVE SMOOTH"
);
},
{
closed = 1;
nodes = (
"277 588 OFFCURVE",
"317 625 OFFCURVE",
"317 686 CURVE SMOOTH",
"317 749 OFFCURVE",
"277 784 OFFCURVE",
"217 784 CURVE SMOOTH",
"157 784 OFFCURVE",
"113 748 OFFCURVE",
"113 684 CURVE SMOOTH",
"113 624 OFFCURVE",
"157 588 OFFCURVE",
"217 588 CURVE SMOOTH"
);
}
);
width = 1044;
}
);
note = uni10B3A;
},
{
glyphname = uni10B3B;
lastChange = "2016-11-10 14:13:37 +0000";
layers = (
{
layerId = "CE62A97F-1FFA-40F4-90CE-7C43E9FFEEC9";
paths = (
{
closed = 1;
nodes = (
"820 -68 OFFCURVE",
"881 -12 OFFCURVE",
"881 80 CURVE SMOOTH",
"881 175 OFFCURVE",
"820 227 OFFCURVE",
"729 227 CURVE SMOOTH",
"638 227 OFFCURVE",
"573 171 OFFCURVE",
"573 78 CURVE SMOOTH",
"573 -9 OFFCURVE",
"637 -68 OFFCURVE",
"729 -68 CURVE SMOOTH"
);
},
{
closed = 1;
nodes = (
"359 694 OFFCURVE",
"420 748 OFFCURVE",
"420 840 CURVE SMOOTH",
"420 935 OFFCURVE",
"359 987 OFFCURVE",
"268 987 CURVE SMOOTH",
"175 987 OFFCURVE",
"113 930 OFFCURVE",
"113 838 CURVE SMOOTH",
"113 751 OFFCURVE",
"176 694 OFFCURVE",
"268 694 CURVE SMOOTH"
);
},
{
closed = 1;
nodes = (
"1281 694 OFFCURVE",
"1341 748 OFFCURVE",
"1341 840 CURVE SMOOTH",
"1341 935 OFFCURVE",
"1281 987 OFFCURVE",
"1190 987 CURVE SMOOTH",
"1099 987 OFFCURVE",
"1034 931 OFFCURVE",
"1034 838 CURVE SMOOTH",
"1034 751 OFFCURVE",
"1099 694 OFFCURVE",
"1190 694 CURVE SMOOTH"
);
}
);
width = 1454;
}
);
note = uni10B3B;
},
{
glyphname = uni10B3C;
lastChange = "2016-11-10 14:13:37 +0000";
layers = (
{
layerId = "CE62A97F-1FFA-40F4-90CE-7C43E9FFEEC9";
paths = (
{
closed = 1;
nodes = (
"1669 756 OFFCURVE",
"1751 826 OFFCURVE",
"1751 950 CURVE SMOOTH",
"1751 1073 OFFCURVE",
"1673 1147 OFFCURVE",
"1548 1147 CURVE SMOOTH",
"1423 1147 OFFCURVE",
"1341 1071 OFFCURVE",
"1341 948 CURVE SMOOTH",
"1341 832 OFFCURVE",
"1427 756 OFFCURVE",
"1548 756 CURVE SMOOTH"
);
},
{
closed = 1;
nodes = (
"1058 -258 OFFCURVE",
"1137 -184 OFFCURVE",
"1137 -63 CURVE SMOOTH",
"1137 58 OFFCURVE",
"1059 133 OFFCURVE",
"934 133 CURVE SMOOTH",
"809 133 OFFCURVE",
"727 57 OFFCURVE",
"727 -66 CURVE SMOOTH",
"727 -179 OFFCURVE",
"809 -258 OFFCURVE",
"934 -258 CURVE SMOOTH"
);
},
{
closed = 1;
nodes = (
"440 756 OFFCURVE",
"522 826 OFFCURVE",
"522 950 CURVE SMOOTH",
"522 1073 OFFCURVE",
"444 1147 OFFCURVE",
"319 1147 CURVE SMOOTH",
"194 1147 OFFCURVE",
"113 1069 OFFCURVE",
"113 948 CURVE SMOOTH",
"113 833 OFFCURVE",
"195 756 OFFCURVE",
"319 756 CURVE SMOOTH"
);
}
);
width = 1864;
}
);
note = uni10B3C;
},
{
glyphname = uni10B3D;
lastChange = "2016-11-10 14:13:37 +0000";
layers = (
{
layerId = "CE62A97F-1FFA-40F4-90CE-7C43E9FFEEC9";
paths = (
{
closed = 1;
nodes = (
"1669 -242 OFFCURVE",
"1751 -166 OFFCURVE",
"1751 -43 CURVE SMOOTH",
"1751 72 OFFCURVE",
"1669 150 OFFCURVE",
"1544 150 CURVE SMOOTH",
"1420 150 OFFCURVE",
"1341 76 OFFCURVE",
"1341 -45 CURVE SMOOTH",
"1341 -168 OFFCURVE",
"1419 -242 OFFCURVE",
"1544 -242 CURVE SMOOTH"
);
},
{
closed = 1;
nodes = (
"440 -242 OFFCURVE",
"522 -166 OFFCURVE",
"522 -43 CURVE SMOOTH",
"522 72 OFFCURVE",
"440 150 OFFCURVE",
"315 150 CURVE SMOOTH",
"192 150 OFFCURVE",
"113 76 OFFCURVE",
"113 -45 CURVE SMOOTH",
"113 -166 OFFCURVE",
"191 -242 OFFCURVE",
"315 -242 CURVE SMOOTH"
);
},
{
closed = 1;
nodes = (
"1055 772 OFFCURVE",
"1137 848 OFFCURVE",
"1137 971 CURVE SMOOTH",
"1137 1087 OFFCURVE",
"1054 1163 OFFCURVE",
"930 1163 CURVE SMOOTH",
"809 1163 OFFCURVE",
"727 1093 OFFCURVE",
"727 969 CURVE SMOOTH",
"727 846 OFFCURVE",
"805 772 OFFCURVE",
"930 772 CURVE SMOOTH"
);
}
);
width = 1864;
}
);
note = uni10B3D;
},
{
glyphname = uni10B3E;
lastChange = "2016-11-10 14:13:37 +0000";
layers = (
{
layerId = "CE62A97F-1FFA-40F4-90CE-7C43E9FFEEC9";
paths = (
{
closed = 1;
nodes = (
"1058 -242 OFFCURVE",
"1137 -168 OFFCURVE",
"1137 -47 CURVE SMOOTH",
"1137 76 OFFCURVE",
"1059 150 OFFCURVE",
"934 150 CURVE SMOOTH",
"809 150 OFFCURVE",
"727 74 OFFCURVE",
"727 -49 CURVE SMOOTH",
"727 -164 OFFCURVE",
"809 -242 OFFCURVE",
"934 -242 CURVE SMOOTH"
);
},
{
closed = 1;
nodes = (
"855 -182 OFFCURVE",
"799 -131 OFFCURVE",
"799 -47 CURVE SMOOTH",
"799 37 OFFCURVE",
"854 88 OFFCURVE",
"934 88 CURVE SMOOTH",
"1021 88 OFFCURVE",
"1069 37 OFFCURVE",
"1069 -47 CURVE SMOOTH",
"1069 -131 OFFCURVE",
"1013 -182 OFFCURVE",
"934 -182 CURVE SMOOTH"
);
},
{
closed = 1;
nodes = (
"443 772 OFFCURVE",
"522 846 OFFCURVE",
"522 967 CURVE SMOOTH",
"522 1090 OFFCURVE",
"443 1163 OFFCURVE",
"319 1163 CURVE SMOOTH",
"192 1163 OFFCURVE",
"113 1085 OFFCURVE",
"113 965 CURVE SMOOTH",
"113 852 OFFCURVE",
"195 772 OFFCURVE",
"319 772 CURVE SMOOTH"
);
},
{
closed = 1;
nodes = (
"240 831 OFFCURVE",
"184 886 OFFCURVE",
"184 967 CURVE SMOOTH",
"184 1051 OFFCURVE",
"239 1102 OFFCURVE",
"319 1102 CURVE SMOOTH",
"407 1102 OFFCURVE",
"455 1051 OFFCURVE",
"455 967 CURVE SMOOTH",
"455 886 OFFCURVE",
"400 831 OFFCURVE",
"319 831 CURVE SMOOTH"
);
},
{
closed = 1;
nodes = (
"1672 772 OFFCURVE",
"1751 846 OFFCURVE",
"1751 967 CURVE SMOOTH",
"1751 1090 OFFCURVE",
"1672 1163 OFFCURVE",
"1548 1163 CURVE SMOOTH",
"1424 1163 OFFCURVE",
"1341 1086 OFFCURVE",
"1341 965 CURVE SMOOTH",
"1341 850 OFFCURVE",
"1425 772 OFFCURVE",
"1548 772 CURVE SMOOTH"
);
},
{
closed = 1;
nodes = (
"1469 831 OFFCURVE",
"1413 883 OFFCURVE",
"1413 967 CURVE SMOOTH",
"1413 1051 OFFCURVE",
"1468 1102 OFFCURVE",
"1548 1102 CURVE SMOOTH",
"1635 1102 OFFCURVE",
"1683 1051 OFFCURVE",
"1683 967 CURVE SMOOTH",
"1683 883 OFFCURVE",
"1627 831 OFFCURVE",
"1548 831 CURVE SMOOTH"
);
}
);
width = 1864;
}
);
note = uni10B3E;
},
{
glyphname = uni10B3F;
lastChange = "2016-11-10 14:13:37 +0000";
layers = (
{
layerId = "CE62A97F-1FFA-40F4-90CE-7C43E9FFEEC9";
paths = (
{
closed = 1;
nodes = (
"1669 -242 OFFCURVE",
"1751 -166 OFFCURVE",
"1751 -43 CURVE SMOOTH",
"1751 72 OFFCURVE",
"1669 150 OFFCURVE",
"1544 150 CURVE SMOOTH",
"1420 150 OFFCURVE",
"1341 76 OFFCURVE",
"1341 -45 CURVE SMOOTH",
"1341 -168 OFFCURVE",
"1419 -242 OFFCURVE",
"1544 -242 CURVE SMOOTH"
);
},
{
closed = 1;
nodes = (
"440 -242 OFFCURVE",
"522 -166 OFFCURVE",
"522 -43 CURVE SMOOTH",
"522 72 OFFCURVE",
"440 150 OFFCURVE",
"315 150 CURVE SMOOTH",
"192 150 OFFCURVE",
"113 76 OFFCURVE",
"113 -45 CURVE SMOOTH",
"113 -166 OFFCURVE",
"191 -242 OFFCURVE",
"315 -242 CURVE SMOOTH"
);
},
{
closed = 1;
nodes = (
"228 -180 OFFCURVE",
"180 -129 OFFCURVE",
"180 -45 CURVE SMOOTH",
"180 39 OFFCURVE",
"238 90 OFFCURVE",
"315 90 CURVE SMOOTH",
"395 90 OFFCURVE",
"451 36 OFFCURVE",
"451 -45 CURVE SMOOTH",
"451 -129 OFFCURVE",
"395 -180 OFFCURVE",
"315 -180 CURVE SMOOTH"
);
},
{
closed = 1;
nodes = (
"1457 -180 OFFCURVE",
"1409 -129 OFFCURVE",
"1409 -45 CURVE SMOOTH",
"1409 39 OFFCURVE",
"1465 90 OFFCURVE",
"1544 90 CURVE SMOOTH",
"1623 90 OFFCURVE",
"1679 39 OFFCURVE",
"1679 -45 CURVE SMOOTH",
"1679 -129 OFFCURVE",
"1624 -180 OFFCURVE",
"1544 -180 CURVE SMOOTH"
);
},
{
closed = 1;
nodes = (
"1055 772 OFFCURVE",
"1137 848 OFFCURVE",
"1137 971 CURVE SMOOTH",
"1137 1087 OFFCURVE",
"1054 1163 OFFCURVE",
"930 1163 CURVE SMOOTH",
"809 1163 OFFCURVE",
"727 1093 OFFCURVE",
"727 969 CURVE SMOOTH",
"727 846 OFFCURVE",
"805 772 OFFCURVE",
"930 772 CURVE SMOOTH"
);
},
{
closed = 1;
nodes = (
"843 834 OFFCURVE",
"795 885 OFFCURVE",
"795 969 CURVE SMOOTH",
"795 1053 OFFCURVE",
"851 1104 OFFCURVE",
"930 1104 CURVE SMOOTH",
"1009 1104 OFFCURVE",
"1065 1053 OFFCURVE",
"1065 969 CURVE SMOOTH",
"1065 885 OFFCURVE",
"1010 834 OFFCURVE",
"930 834 CURVE SMOOTH"
);
}
);
width = 1864;
}
);
note = uni10B3F;
},
{
glyphname = uni10B3110B00;
lastChange = "2016-11-10 14:13:37 +0000";
layers = (
{
layerId = "CE62A97F-1FFA-40F4-90CE-7C43E9FFEEC9";
paths = (
{
closed = 1;
nodes = (
"1587 -242 OFFCURVE",
"1743 -47 OFFCURVE",
"1743 377 CURVE SMOOTH",
"1743 408 OFFCURVE",
"1742 437 OFFCURVE",
"1741 465 CURVE",
"1767 454 OFFCURVE",
"1797 449 OFFCURVE",
"1831 449 CURVE SMOOTH",
"1886 449 OFFCURVE",
"1932 465 OFFCURVE",
"1969 498 CURVE",
"1968 479 OFFCURVE",
"1968 460 OFFCURVE",
"1967 441 CURVE SMOOTH",
"1966 422 OFFCURVE",
"1966 400 OFFCURVE",
"1966 377 CURVE SMOOTH",
"1966 -48 OFFCURVE",
"2120 -242 OFFCURVE",
"2439 -242 CURVE SMOOTH",
"2756 -242 OFFCURVE",
"2912 -47 OFFCURVE",
"2912 377 CURVE SMOOTH",
"2912 462 OFFCURVE",
"2909 537 OFFCURVE",
"2899 616 CURVE SMOOTH",
"2889 695 OFFCURVE",
"2873 777 OFFCURVE",
"2846 877 CURVE",
"2666 877 LINE",
"2691 770 OFFCURVE",
"2708 693 OFFCURVE",
"2717 619 CURVE SMOOTH",
"2726 545 OFFCURVE",
"2730 474 OFFCURVE",
"2730 385 CURVE SMOOTH",
"2730 57 OFFCURVE",
"2632 -94 OFFCURVE",
"2439 -94 CURVE SMOOTH",
"2244 -94 OFFCURVE",
"2148 57 OFFCURVE",
"2148 385 CURVE SMOOTH",
"2148 473 OFFCURVE",
"2151 543 OFFCURVE",
"2160 618 CURVE SMOOTH",
"2169 693 OFFCURVE",
"2186 772 OFFCURVE",
"2211 877 CURVE",
"2031 877 LINE",
"2002 761 OFFCURVE",
"1981 694 OFFCURVE",
"1954 656 CURVE SMOOTH",
"1926 618 OFFCURVE",
"1892 608 OFFCURVE",
"1837 608 CURVE SMOOTH",
"1781 608 OFFCURVE",
"1741 629 OFFCURVE",
"1722 666 CURVE",
"1714 734 OFFCURVE",
"1700 801 OFFCURVE",
"1677 877 CURVE",
"1497 877 LINE",
"1522 770 OFFCURVE",
"1539 693 OFFCURVE",
"1548 619 CURVE SMOOTH",
"1557 545 OFFCURVE",
"1561 474 OFFCURVE",
"1561 385 CURVE SMOOTH",
"1561 57 OFFCURVE",
"1463 -94 OFFCURVE",
"1270 -94 CURVE SMOOTH",
"1075 -94 OFFCURVE",
"979 57 OFFCURVE",
"979 385 CURVE SMOOTH",
"979 473 OFFCURVE",
"982 543 OFFCURVE",
"991 618 CURVE SMOOTH",
"1000 693 OFFCURVE",
"1017 772 OFFCURVE",
"1042 877 CURVE",
"862 877 LINE",
"833 761 OFFCURVE",
"812 694 OFFCURVE",
"785 656 CURVE SMOOTH",
"757 618 OFFCURVE",
"723 608 OFFCURVE",
"668 608 CURVE SMOOTH",
"587 608 OFFCURVE",
"541 652 OFFCURVE",
"541 725 CURVE SMOOTH",
"541 746 OFFCURVE",
"536 776 OFFCURVE",
"528 805 CURVE SMOOTH",
"520 833 OFFCURVE",
"509 861 OFFCURVE",
"500 877 CURVE",
"358 877 LINE",
"358 764 LINE SMOOTH",
"358 647 OFFCURVE",
"321 598 OFFCURVE",
"225 598 CURVE SMOOTH",
"41 598 LINE",
"41 469 LINE",
"104 456 OFFCURVE",
"171 449 OFFCURVE",
"244 449 CURVE SMOOTH",
"369 449 OFFCURVE",
"426 502 OFFCURVE",
"455 606 CURVE",
"490 501 OFFCURVE",
"559 449 OFFCURVE",
"662 449 CURVE SMOOTH",
"717 449 OFFCURVE",
"763 465 OFFCURVE",
"800 498 CURVE",
"799 479 OFFCURVE",
"799 460 OFFCURVE",
"798 441 CURVE SMOOTH",
"797 422 OFFCURVE",
"797 400 OFFCURVE",
"797 377 CURVE SMOOTH",
"797 -48 OFFCURVE",
"951 -242 OFFCURVE",
"1270 -242 CURVE SMOOTH"
);
}
);
width = 3055;
}
);
note = uni10B3110B00;
},
{
glyphname = uni10B3110B17;
lastChange = "2016-11-10 14:13:37 +0000";
layers = (
{
layerId = "CE62A97F-1FFA-40F4-90CE-7C43E9FFEEC9";
paths = (
{
closed = 1;
nodes = (
"356 -283 LINE",
"356 260 LINE",
"413 201 OFFCURVE",
"493 172 OFFCURVE",
"598 172 CURVE SMOOTH",
"699 172 OFFCURVE",
"781 185 OFFCURVE",
"844 212 CURVE",
"881 -99 OFFCURVE",
"1033 -242 OFFCURVE",
"1308 -242 CURVE SMOOTH",
"1625 -242 OFFCURVE",
"1781 -47 OFFCURVE",
"1781 377 CURVE SMOOTH",
"1781 408 OFFCURVE",
"1780 437 OFFCURVE",
"1779 465 CURVE",
"1805 454 OFFCURVE",
"1835 449 OFFCURVE",
"1869 449 CURVE SMOOTH",
"1924 449 OFFCURVE",
"1970 465 OFFCURVE",
"2007 498 CURVE",
"2006 479 OFFCURVE",
"2006 460 OFFCURVE",
"2005 441 CURVE SMOOTH",
"2004 422 OFFCURVE",
"2004 400 OFFCURVE",
"2004 377 CURVE SMOOTH",
"2004 -48 OFFCURVE",
"2158 -242 OFFCURVE",
"2477 -242 CURVE SMOOTH",
"2794 -242 OFFCURVE",
"2950 -47 OFFCURVE",
"2950 377 CURVE SMOOTH",
"2950 462 OFFCURVE",
"2947 537 OFFCURVE",
"2937 616 CURVE SMOOTH",
"2927 695 OFFCURVE",
"2911 777 OFFCURVE",
"2884 877 CURVE",
"2704 877 LINE",
"2729 770 OFFCURVE",
"2746 693 OFFCURVE",
"2755 619 CURVE SMOOTH",
"2764 545 OFFCURVE",
"2768 474 OFFCURVE",
"2768 385 CURVE SMOOTH",
"2768 57 OFFCURVE",
"2670 -94 OFFCURVE",
"2477 -94 CURVE SMOOTH",
"2282 -94 OFFCURVE",
"2186 57 OFFCURVE",
"2186 385 CURVE SMOOTH",
"2186 473 OFFCURVE",
"2189 543 OFFCURVE",
"2198 618 CURVE SMOOTH",
"2207 693 OFFCURVE",
"2224 772 OFFCURVE",
"2249 877 CURVE",
"2069 877 LINE",
"2040 761 OFFCURVE",
"2019 694 OFFCURVE",
"1992 656 CURVE SMOOTH",
"1964 618 OFFCURVE",
"1930 608 OFFCURVE",
"1875 608 CURVE SMOOTH",
"1819 608 OFFCURVE",
"1779 629 OFFCURVE",
"1760 666 CURVE",
"1752 734 OFFCURVE",
"1738 801 OFFCURVE",
"1715 877 CURVE",
"1535 877 LINE",
"1560 770 OFFCURVE",
"1577 693 OFFCURVE",
"1586 619 CURVE SMOOTH",
"1595 545 OFFCURVE",
"1599 474 OFFCURVE",
"1599 385 CURVE SMOOTH",
"1599 57 OFFCURVE",
"1501 -94 OFFCURVE",
"1308 -94 CURVE SMOOTH",
"1113 -94 OFFCURVE",
"1017 57 OFFCURVE",
"1017 385 CURVE SMOOTH",
"1017 473 OFFCURVE",
"1020 543 OFFCURVE",
"1029 618 CURVE SMOOTH",
"1038 693 OFFCURVE",
"1055 772 OFFCURVE",
"1080 877 CURVE",
"900 877 LINE",
"855 724 OFFCURVE",
"841 591 OFFCURVE",
"837 488 CURVE",
"824 425 OFFCURVE",
"795 384 OFFCURVE",
"752 358 CURVE SMOOTH",
"708 332 OFFCURVE",
"652 322 OFFCURVE",
"584 322 CURVE SMOOTH",
"476 322 OFFCURVE",
"419 342 OFFCURVE",
"389 384 CURVE SMOOTH",
"359 426 OFFCURVE",
"356 489 OFFCURVE",
"356 580 CURVE SMOOTH",
"356 879 LINE",
"174 879 LINE",
"174 -283 LINE"
);
}
);
width = 3093;
}
);
note = uni10B3110B17;
},
{
glyphname = uni10B3110B19;
lastChange = "2016-11-10 14:13:37 +0000";
layers = (
{
layerId = "CE62A97F-1FFA-40F4-90CE-7C43E9FFEEC9";
paths = (
{
closed = 1;
nodes = (
"1241 -242 OFFCURVE",
"1380 -192 OFFCURVE",
"1473 -87 CURVE SMOOTH",
"1565 18 OFFCURVE",
"1613 181 OFFCURVE",
"1613 406 CURVE SMOOTH",
"1613 481 LINE",
"1652 458 OFFCURVE",
"1695 449 OFFCURVE",
"1742 449 CURVE SMOOTH",
"1797 449 OFFCURVE",
"1842 465 OFFCURVE",
"1879 498 CURVE",
"1879 479 OFFCURVE",
"1879 459 OFFCURVE",
"1878 439 CURVE SMOOTH",
"1877 418 OFFCURVE",
"1877 398 OFFCURVE",
"1877 377 CURVE SMOOTH",
"1877 -47 OFFCURVE",
"2031 -242 OFFCURVE",
"2350 -242 CURVE SMOOTH",
"2667 -242 OFFCURVE",
"2823 -47 OFFCURVE",
"2823 377 CURVE SMOOTH",
"2823 462 OFFCURVE",
"2820 537 OFFCURVE",
"2810 616 CURVE SMOOTH",
"2800 695 OFFCURVE",
"2784 777 OFFCURVE",
"2757 877 CURVE",
"2577 877 LINE",
"2602 770 OFFCURVE",
"2619 693 OFFCURVE",
"2628 619 CURVE SMOOTH",
"2637 545 OFFCURVE",
"2641 474 OFFCURVE",
"2641 385 CURVE SMOOTH",
"2641 57 OFFCURVE",
"2543 -94 OFFCURVE",
"2350 -94 CURVE SMOOTH",
"2155 -94 OFFCURVE",
"2059 57 OFFCURVE",
"2059 385 CURVE SMOOTH",
"2059 473 OFFCURVE",
"2062 543 OFFCURVE",
"2071 618 CURVE SMOOTH",
"2080 693 OFFCURVE",
"2097 772 OFFCURVE",
"2122 877 CURVE",
"1942 877 LINE",
"1913 761 OFFCURVE",
"1892 694 OFFCURVE",
"1865 656 CURVE SMOOTH",
"1837 618 OFFCURVE",
"1803 608 OFFCURVE",
"1748 608 CURVE SMOOTH",
"1667 608 OFFCURVE",
"1619 652 OFFCURVE",
"1619 725 CURVE SMOOTH",
"1619 746 OFFCURVE",
"1614 776 OFFCURVE",
"1607 805 CURVE SMOOTH",
"1600 833 OFFCURVE",
"1589 861 OFFCURVE",
"1580 877 CURVE",
"1423 877 LINE",
"1426 829 OFFCURVE",
"1428 750 OFFCURVE",
"1430 662 CURVE SMOOTH",
"1432 574 OFFCURVE",
"1433 475 OFFCURVE",
"1433 387 CURVE SMOOTH",
"1433 59 OFFCURVE",
"1321 -94 OFFCURVE",
"1061 -94 CURVE SMOOTH",
"992 -94 OFFCURVE",
"929 -70 OFFCURVE",
"878 -22 CURVE SMOOTH",
"827 26 OFFCURVE",
"788 97 OFFCURVE",
"767 193 CURVE",
"861 193 LINE SMOOTH",
"1049 193 OFFCURVE",
"1142 263 OFFCURVE",
"1142 428 CURVE SMOOTH",
"1142 572 OFFCURVE",
"1114 691 OFFCURVE",
"1064 772 CURVE SMOOTH",
"1014 853 OFFCURVE",
"941 899 OFFCURVE",
"853 899 CURVE SMOOTH",
"776 899 OFFCURVE",
"704 851 OFFCURVE",
"652 768 CURVE SMOOTH",
"599 684 OFFCURVE",
"566 567 OFFCURVE",
"566 431 CURVE SMOOTH",
"566 422 OFFCURVE",
"566 412 OFFCURVE",
"566 403 CURVE SMOOTH",
"566 394 OFFCURVE",
"566 384 OFFCURVE",
"567 375 CURVE",
"544 395 OFFCURVE",
"523 419 OFFCURVE",
"502 448 CURVE SMOOTH",
"461 505 OFFCURVE",
"425 572 OFFCURVE",
"394 641 CURVE SMOOTH",
"363 709 OFFCURVE",
"338 772 OFFCURVE",
"319 821 CURVE SMOOTH",
"310 846 OFFCURVE",
"302 865 OFFCURVE",
"295 879 CURVE",
"104 879 LINE",
"156 808 OFFCURVE",
"192 743 OFFCURVE",
"216 672 CURVE SMOOTH",
"239 600 OFFCURVE",
"250 523 OFFCURVE",
"250 434 CURVE SMOOTH",
"250 285 OFFCURVE",
"195 133 OFFCURVE",
"102 0 CURVE",
"274 0 LINE",
"326 67 OFFCURVE",
"358 127 OFFCURVE",
"378 188 CURVE SMOOTH",
"398 248 OFFCURVE",
"407 310 OFFCURVE",
"412 379 CURVE",
"419 360 OFFCURVE",
"440 331 OFFCURVE",
"470 300 CURVE SMOOTH",
"500 269 OFFCURVE",
"538 237 OFFCURVE",
"581 216 CURVE",
"628 -85 OFFCURVE",
"791 -242 OFFCURVE",
"1058 -242 CURVE SMOOTH"
);
},
{
closed = 1;
nodes = (
"748 410 LINE SMOOTH",
"748 518 OFFCURVE",
"757 602 OFFCURVE",
"776 661 CURVE SMOOTH",
"795 720 OFFCURVE",
"821 750 OFFCURVE",
"855 750 CURVE SMOOTH",
"889 750 OFFCURVE",
"915 723 OFFCURVE",
"933 668 CURVE SMOOTH",
"950 613 OFFCURVE",
"959 534 OFFCURVE",
"959 432 CURVE SMOOTH",
"959 368 OFFCURVE",
"929 332 OFFCURVE",
"841 332 CURVE SMOOTH",
"748 332 LINE"
);
}
);
width = 2966;
}
);
note = uni10B3110B19;
},
{
glyphname = uni10B0010B35;
lastChange = "2016-11-10 14:13:37 +0000";
layers = (
{
layerId = "CE62A97F-1FFA-40F4-90CE-7C43E9FFEEC9";
paths = (
{
closed = 1;
nodes = (
"792 -242 OFFCURVE",
"925 -197 OFFCURVE",
"1012 -97 CURVE SMOOTH",
"1099 3 OFFCURVE",
"1139 159 OFFCURVE",
"1139 379 CURVE SMOOTH",
"1139 410 LINE",
"1174 381 OFFCURVE",
"1219 367 OFFCURVE",
"1272 367 CURVE SMOOTH",
"1315 367 OFFCURVE",
"1353 371 OFFCURVE",
"1387 379 CURVE",
"1387 -45 OFFCURVE",
"1541 -242 OFFCURVE",
"1860 -242 CURVE SMOOTH",
"2177 -242 OFFCURVE",
"2333 -47 OFFCURVE",
"2333 377 CURVE SMOOTH",
"2333 396 LINE",
"2364 377 OFFCURVE",
"2402 367 OFFCURVE",
"2447 367 CURVE SMOOTH",
"2660 367 OFFCURVE",
"2766 473 OFFCURVE",
"2766 662 CURVE SMOOTH",
"2766 687 OFFCURVE",
"2762 724 OFFCURVE",
"2755 764 CURVE SMOOTH",
"2747 803 OFFCURVE",
"2737 844 OFFCURVE",
"2725 879 CURVE",
"2584 879 LINE",
"2584 694 LINE SMOOTH",
"2584 573 OFFCURVE",
"2543 516 OFFCURVE",
"2447 516 CURVE SMOOTH",
"2424 516 OFFCURVE",
"2398 524 OFFCURVE",
"2374 540 CURVE SMOOTH",
"2350 556 OFFCURVE",
"2328 581 OFFCURVE",
"2315 613 CURVE",
"2304 709 OFFCURVE",
"2287 808 OFFCURVE",
"2267 877 CURVE",
"2087 877 LINE",
"2112 770 OFFCURVE",
"2129 693 OFFCURVE",
"2138 619 CURVE SMOOTH",
"2147 545 OFFCURVE",
"2151 474 OFFCURVE",
"2151 385 CURVE SMOOTH",
"2151 57 OFFCURVE",
"2053 -94 OFFCURVE",
"1860 -94 CURVE SMOOTH",
"1665 -94 OFFCURVE",
"1569 57 OFFCURVE",
"1569 385 CURVE SMOOTH",
"1569 473 OFFCURVE",
"1572 543 OFFCURVE",
"1581 618 CURVE SMOOTH",
"1590 693 OFFCURVE",
"1607 772 OFFCURVE",
"1632 877 CURVE",
"1452 877 LINE",
"1421 773 OFFCURVE",
"1405 680 OFFCURVE",
"1397 599 CURVE",
"1378 544 OFFCURVE",
"1337 516 OFFCURVE",
"1272 516 CURVE SMOOTH",
"1192 516 OFFCURVE",
"1139 582 OFFCURVE",
"1139 682 CURVE SMOOTH",
"1139 707 OFFCURVE",
"1134 745 OFFCURVE",
"1127 782 CURVE SMOOTH",
"1119 818 OFFCURVE",
"1109 855 OFFCURVE",
"1098 879 CURVE",
"956 879 LINE",
"956 387 LINE SMOOTH",
"956 215 OFFCURVE",
"932 95 OFFCURVE",
"876 18 CURVE SMOOTH",
"820 -59 OFFCURVE",
"733 -94 OFFCURVE",
"608 -94 CURVE SMOOTH",
"469 -94 OFFCURVE",
"377 2 OFFCURVE",
"334 193 CURVE",
"428 193 LINE SMOOTH",
"616 193 OFFCURVE",
"709 263 OFFCURVE",
"709 428 CURVE SMOOTH",
"709 572 OFFCURVE",
"681 691 OFFCURVE",
"631 772 CURVE SMOOTH",
"581 853 OFFCURVE",
"508 899 OFFCURVE",
"420 899 CURVE SMOOTH",
"343 899 OFFCURVE",
"271 851 OFFCURVE",
"219 768 CURVE SMOOTH",
"166 684 OFFCURVE",
"133 567 OFFCURVE",
"133 431 CURVE SMOOTH",
"133 -8 OFFCURVE",
"293 -242 OFFCURVE",
"608 -242 CURVE SMOOTH"
);
},
{
closed = 1;
nodes = (
"315 410 LINE SMOOTH",
"315 518 OFFCURVE",
"324 602 OFFCURVE",
"343 661 CURVE SMOOTH",
"362 720 OFFCURVE",
"388 750 OFFCURVE",
"422 750 CURVE SMOOTH",
"456 750 OFFCURVE",
"482 723 OFFCURVE",
"500 668 CURVE SMOOTH",
"517 613 OFFCURVE",
"526 534 OFFCURVE",
"526 432 CURVE SMOOTH",
"526 368 OFFCURVE",
"496 332 OFFCURVE",
"408 332 CURVE SMOOTH",
"315 332 LINE"
);
}
);
width = 2858;
}
);
note = uni10B0010B35;
},
{
glyphname = ringpoint;
lastChange = "2016-11-10 14:13:37 +0000";
layers = (
{
layerId = "CE62A97F-1FFA-40F4-90CE-7C43E9FFEEC9";
paths = (
{
closed = 1;
nodes = (
"494 389 OFFCURVE",
"610 494 OFFCURVE",
"610 637 CURVE SMOOTH",
"610 705 OFFCURVE",
"586 763 OFFCURVE",
"537 811 CURVE SMOOTH",
"490 860 OFFCURVE",
"432 885 OFFCURVE",
"362 885 CURVE SMOOTH",
"229 885 OFFCURVE",
"115 773 OFFCURVE",
"115 637 CURVE SMOOTH",
"115 498 OFFCURVE",
"226 389 OFFCURVE",
"362 389 CURVE SMOOTH"
);
},
{
closed = 1;
nodes = (
"265 465 OFFCURVE",
"190 541 OFFCURVE",
"190 637 CURVE SMOOTH",
"190 730 OFFCURVE",
"270 809 OFFCURVE",
"362 809 CURVE SMOOTH",
"455 809 OFFCURVE",
"535 730 OFFCURVE",
"535 637 CURVE SMOOTH",
"535 546 OFFCURVE",
"466 465 OFFCURVE",
"362 465 CURVE SMOOTH"
);
}
);
width = 725;
}
);
note = uni2E30;
unicode = 2E30;
},
{
glyphname = wordseparatormiddledot;
lastChange = "2016-11-10 14:13:37 +0000";
layers = (
{
layerId = "CE62A97F-1FFA-40F4-90CE-7C43E9FFEEC9";
paths = (
{
closed = 1;
nodes = (
"509 598 OFFCURVE",
"573 654 OFFCURVE",
"581 750 CURVE",
"581 850 OFFCURVE",
"528 902 OFFCURVE",
"448 902 CURVE SMOOTH",
"355 902 OFFCURVE",
"289 837 OFFCURVE",
"289 730 CURVE SMOOTH",
"289 646 OFFCURVE",
"335 598 OFFCURVE",
"424 598 CURVE SMOOTH"
);
}
);
width = 871;
}
);
note = uni2E31;
unicode = 2E31;
},
{
glyphname = zerowidthjoiner;
lastChange = "2016-11-10 14:13:37 +0000";
layers = (
{
layerId = "CE62A97F-1FFA-40F4-90CE-7C43E9FFEEC9";
paths = (
{
closed = 1;
nodes = (
"54 -338 LINE",
"54 1199 LINE",
"224 1030 LINE",
"299 1103 LINE",
"74 1323 LINE",
"299 1539 LINE",
"224 1613 LINE",
"0 1393 LINE",
"-224 1613 LINE",
"-299 1540 LINE",
"-74 1323 LINE",
"-299 1103 LINE",
"-224 1030 LINE",
"-54 1199 LINE",
"-54 -338 LINE"
);
}
);
width = 0;
}
);
note = uni200D;
unicode = 200D;
},
{
glyphname = zerowidthnonjoiner;
lastChange = "2016-11-10 14:13:37 +0000";
layers = (
{
layerId = "CE62A97F-1FFA-40F4-90CE-7C43E9FFEEC9";
paths = (
{
closed = 1;
nodes = (
"54 -339 LINE",
"54 1613 LINE",
"-54 1613 LINE",
"-54 -339 LINE"
);
}
);
width = 0;
}
);
note = uni200C;
unicode = 200C;
},
